<svg width="40" height="40" viewBox="0 0 40 40" fill="none" xmlns="http://www.w3.org/2000/svg">
<g id="Frame" clip-path="url(#clip0_14513_4305)">
<g id="Group">
<path id="Vector" d="M34.8887 0H5.11133C2.29289 0 0 2.29297 0 5.11141V34.8887C0 37.707 2.29289 40 5.11133 40H34.8887C37.7071 40 40 37.707 40 34.8886V5.11141C40 2.29297 37.7071 0 34.8887 0ZM37.6439 34.8887C37.6439 36.408 36.4079 37.6439 34.8887 37.6439H5.11133C3.59203 37.6439 2.35602 36.4079 2.35602 34.8887V30.5912L10.1103 23.9935C10.2469 23.8769 10.4204 23.8124 10.5999 23.8113C10.7795 23.8103 10.9537 23.8727 11.0917 23.9877L15.9491 28.0211C16.4174 28.4099 17.1049 28.378 17.5353 27.9472L29.0766 16.3883C29.2852 16.1793 29.5284 16.159 29.6554 16.1655C29.782 16.172 30.0222 16.2171 30.2084 16.4464L37.644 25.6019L37.6439 34.8887ZM37.6439 21.8645L32.0372 14.9609C31.7616 14.6219 31.4179 14.3446 31.0285 14.1468C30.639 13.949 30.2123 13.835 29.7761 13.8123C28.8958 13.7678 28.0326 14.0992 27.4094 14.7234L16.6275 25.522L12.597 22.1752C12.0327 21.7051 11.3203 21.4497 10.5859 21.4541C9.85143 21.4585 9.14218 21.7224 8.58352 22.1992L2.35602 27.4978V5.11141C2.35602 3.59211 3.59203 2.35609 5.11133 2.35609H34.8887C36.408 2.35609 37.6439 3.59211 37.6439 5.11141V21.8645Z" fill="#757575"/>
<path id="Vector_2" d="M12.5918 4.92139C9.45941 4.92139 6.91113 7.46982 6.91113 10.6021C6.91113 13.7344 9.45949 16.2828 12.5918 16.2828C15.7242 16.2828 18.2725 13.7344 18.2725 10.6021C18.2725 7.46975 15.7243 4.92139 12.5918 4.92139ZM12.5918 13.9268C10.7586 13.9268 9.26715 12.4353 9.26715 10.6021C9.26715 8.76881 10.7586 7.2774 12.5918 7.2774C14.4251 7.2774 15.9165 8.76889 15.9165 10.6021C15.9165 12.4353 14.4251 13.9268 12.5918 13.9268Z" fill="#757575"/>
</g>
</g>
<defs>
<clipPath id="clip0_14513_4305">
<rect width="40" height="40" fill="white"/>
</clipPath>
</defs>
</svg>
