<svg width="30" height="30" viewBox="0 0 30 30" fill="none" xmlns="http://www.w3.org/2000/svg">
<g id="Frame">
<g id="Group">
<path id="Vector" d="M3.33333 28.325H5.41667C6.33583 28.325 7.08333 27.5767 7.08333 26.6584V23.775C7.08333 22.8559 6.33583 22.1084 5.41667 22.1084H3.33333C2.41417 22.1084 1.66667 22.8559 1.66667 23.775V26.6584C1.66667 27.5767 2.41417 28.325 3.33333 28.325ZM3.33333 23.775H5.41667L5.41833 26.6584H3.33333V23.775ZM10.4167 28.325H12.5C13.4192 28.325 14.1667 27.5767 14.1667 26.6584V16.325C14.1667 15.4067 13.4192 14.6584 12.5 14.6584H10.4167C9.4975 14.6584 8.75 15.4067 8.75 16.325V26.6584C8.75 27.5767 9.4975 28.325 10.4167 28.325ZM10.4167 16.325H12.5L12.5017 26.6584H10.4167V16.325ZM17.5 17.5584C16.5808 17.5584 15.8333 18.3059 15.8333 19.225V26.6584C15.8333 27.5767 16.5808 28.325 17.5 28.325H19.5833C20.5025 28.325 21.25 27.5767 21.25 26.6584V19.225C21.25 18.3059 20.5025 17.5584 19.5833 17.5584H17.5ZM17.5 26.6584V19.225H19.5833L19.585 26.6584H17.5ZM28.3333 26.6584V10.475C28.3333 9.55587 27.5858 8.80837 26.6667 8.80837H24.5833C23.6642 8.80837 22.9167 9.55587 22.9167 10.475V26.6584C22.9167 27.5767 23.6642 28.325 24.5833 28.325H26.6667C27.5858 28.325 28.3333 27.5767 28.3333 26.6584ZM24.5833 10.475H26.6667L26.6683 26.6584H24.5833V10.475ZM4.95583 13.9475L11.2442 7.6592C11.3658 7.53814 11.5217 7.45745 11.6908 7.42808C11.8598 7.39871 12.0338 7.42209 12.1892 7.49504L17.1525 9.8292C17.6179 10.0483 18.1396 10.1185 18.6463 10.0302C19.1531 9.94188 19.6203 9.69943 19.9842 9.33587L26.2233 3.09754C26.3029 3.02066 26.3664 2.92871 26.4101 2.82704C26.4538 2.72537 26.4767 2.61602 26.4777 2.50537C26.4787 2.39472 26.4576 2.28499 26.4157 2.18257C26.3738 2.08016 26.3119 1.98712 26.2337 1.90887C26.1554 1.83063 26.0624 1.76875 25.96 1.72685C25.8575 1.68495 25.7478 1.66386 25.6372 1.66483C25.5265 1.66579 25.4172 1.68878 25.3155 1.73245C25.2138 1.77612 25.1219 1.83961 25.045 1.9192L18.8058 8.15837C18.6845 8.27939 18.5289 8.36009 18.3601 8.38946C18.1913 8.41884 18.0175 8.39547 17.8625 8.32254L12.8992 5.9867C12.4331 5.7689 11.9113 5.69958 11.4046 5.78812C10.8978 5.87665 10.4305 6.11877 10.0658 6.4817L3.7775 12.77C3.69791 12.8469 3.63442 12.9389 3.59075 13.0405C3.54707 13.1422 3.52409 13.2516 3.52312 13.3622C3.52216 13.4728 3.54325 13.5826 3.58515 13.685C3.62705 13.7874 3.68893 13.8805 3.76717 13.9587C3.84541 14.0369 3.93846 14.0988 4.04087 14.1407C4.14328 14.1826 4.25302 14.2037 4.36367 14.2027C4.47432 14.2018 4.58367 14.1788 4.68534 14.1351C4.78701 14.0914 4.87896 14.028 4.95583 13.9484V13.9475Z" fill="#757575"/>
</g>
</g>
</svg>
