<svg width="30" height="30" viewBox="0 0 30 30" fill="none" xmlns="http://www.w3.org/2000/svg">
<g id="Frame">
<g id="Group">
<path id="Vector" d="M15 23.5022H4.88437C4.31017 23.5017 3.75962 23.2734 3.3536 22.8673C2.94757 22.4613 2.71925 21.9108 2.71875 21.3366V7.51875C2.71925 6.94454 2.94757 6.394 3.3536 5.98797C3.75962 5.58194 4.31017 5.35362 4.88437 5.35313H6.92062V5.86313C6.92062 6.0869 7.00952 6.30151 7.16775 6.45975C7.32599 6.61798 7.5406 6.70687 7.76437 6.70687C7.98815 6.70687 8.20276 6.61798 8.361 6.45975C8.51923 6.30151 8.60812 6.0869 8.60812 5.86313V5.35313H18.6994V5.86313C18.6994 6.0869 18.7883 6.30151 18.9465 6.45975C19.1047 6.61798 19.3193 6.70687 19.5431 6.70687C19.7669 6.70687 19.9815 6.61798 20.1397 6.45975C20.298 6.30151 20.3869 6.0869 20.3869 5.86313V5.35313H22.4156C22.9898 5.35387 23.5402 5.58227 23.9461 5.98824C24.3521 6.39422 24.5805 6.94462 24.5812 7.51875V13.5469C24.5812 13.7707 24.6701 13.9853 24.8284 14.1435C24.9866 14.3017 25.2012 14.3906 25.425 14.3906C25.6488 14.3906 25.8634 14.3017 26.0216 14.1435C26.1799 13.9853 26.2687 13.7707 26.2687 13.5469V7.51875C26.2675 6.49722 25.8612 5.51788 25.1388 4.79555C24.4165 4.07322 23.4372 3.66687 22.4156 3.66563H20.3869V3.23438C20.3869 3.0106 20.298 2.79599 20.1397 2.63775C19.9815 2.47952 19.7669 2.39062 19.5431 2.39062C19.3193 2.39062 19.1047 2.47952 18.9465 2.63775C18.7883 2.79599 18.6994 3.0106 18.6994 3.23438V3.66563H8.60812V3.23438C8.60812 3.0106 8.51923 2.79599 8.361 2.63775C8.20276 2.47952 7.98815 2.39062 7.76437 2.39062C7.5406 2.39062 7.32599 2.47952 7.16775 2.63775C7.00952 2.79599 6.92062 3.0106 6.92062 3.23438V3.66563H4.88437C3.86284 3.66687 2.88351 4.07322 2.16117 4.79555C1.43884 5.51788 1.03249 6.49722 1.03125 7.51875V21.3375C1.03224 22.3591 1.43851 23.3386 2.1609 24.061C2.88329 24.7834 3.86277 25.1896 4.88437 25.1906H15C15.2239 25.1906 15.4386 25.1017 15.597 24.9434C15.7553 24.785 15.8442 24.5703 15.8442 24.3464C15.8442 24.1225 15.7553 23.9078 15.597 23.7495C15.4386 23.5911 15.2239 23.5022 15 23.5022Z" fill="#757575"/>
<path id="Vector_2" d="M7.58813 11.4788C7.46021 11.4788 7.33355 11.504 7.21537 11.5529C7.09719 11.6019 6.98981 11.6736 6.89936 11.7641C6.80891 11.8545 6.73716 11.9619 6.68821 12.0801C6.63926 12.1982 6.61406 12.3249 6.61406 12.4528C6.61406 12.5807 6.63926 12.7074 6.68821 12.8256C6.73716 12.9438 6.80891 13.0511 6.89936 13.1416C6.98981 13.232 7.09719 13.3038 7.21537 13.3527C7.33355 13.4017 7.46021 13.4269 7.58813 13.4269C7.84646 13.4269 8.09422 13.3243 8.27689 13.1416C8.45956 12.9589 8.56219 12.7112 8.56219 12.4528C8.56219 12.1945 8.45956 11.9467 8.27689 11.7641C8.09422 11.5814 7.84646 11.4788 7.58813 11.4788ZM13.6528 11.4788C13.5249 11.4788 13.3982 11.504 13.2801 11.5529C13.1619 11.6019 13.0545 11.6736 12.964 11.7641C12.8736 11.8545 12.8018 11.9619 12.7529 12.0801C12.7039 12.1982 12.6788 12.3249 12.6788 12.4528C12.6788 12.5807 12.7039 12.7074 12.7529 12.8256C12.8018 12.9438 12.8736 13.0511 12.964 13.1416C13.0545 13.232 13.1619 13.3038 13.2801 13.3527C13.3982 13.4017 13.5249 13.4269 13.6528 13.4269C13.9112 13.4269 14.1589 13.3243 14.3416 13.1416C14.5243 12.9589 14.6269 12.7112 14.6269 12.4528C14.6269 12.1945 14.5243 11.9467 14.3416 11.7641C14.1589 11.5814 13.9112 11.4788 13.6528 11.4788ZM18.7425 12.4528C18.7425 12.7112 18.8451 12.9589 19.0278 13.1416C19.2105 13.3243 19.4582 13.4269 19.7166 13.4269C19.9749 13.4269 20.2227 13.3243 20.4053 13.1416C20.588 12.9589 20.6906 12.7112 20.6906 12.4528C20.6906 12.1945 20.588 11.9467 20.4053 11.7641C20.2227 11.5814 19.9749 11.4788 19.7166 11.4788C19.4582 11.4788 19.2105 11.5814 19.0278 11.7641C18.8451 11.9467 18.7425 12.1945 18.7425 12.4528ZM7.58813 16.7859C7.32979 16.7859 7.08203 16.8886 6.89936 17.0712C6.71669 17.2539 6.61406 17.5017 6.61406 17.76C6.61406 18.0183 6.71669 18.2661 6.89936 18.4488C7.08203 18.6314 7.32979 18.7341 7.58813 18.7341C7.84646 18.7341 8.09422 18.6314 8.27689 18.4488C8.45956 18.2661 8.56219 18.0183 8.56219 17.76C8.56219 17.5017 8.45956 17.2539 8.27689 17.0712C8.09422 16.8886 7.84646 16.7859 7.58813 16.7859ZM13.6528 16.7859C13.3945 16.7859 13.1467 16.8886 12.964 17.0712C12.7814 17.2539 12.6788 17.5017 12.6788 17.76C12.6788 18.0183 12.7814 18.2661 12.964 18.4488C13.1467 18.6314 13.3945 18.7341 13.6528 18.7341C13.9112 18.7341 14.1589 18.6314 14.3416 18.4488C14.5243 18.2661 14.6269 18.0183 14.6269 17.76C14.6269 17.5017 14.5243 17.2539 14.3416 17.0712C14.1589 16.8886 13.9112 16.7859 13.6528 16.7859ZM22.9753 15.6234C21.3862 15.6252 19.8627 16.2572 18.7389 17.3807C17.6151 18.5043 16.9829 20.0278 16.9809 21.6169C16.9809 24.9206 19.6697 27.6103 22.9753 27.6103C26.2809 27.6103 28.9697 24.9216 28.9697 21.6169C28.9677 20.0278 28.3355 18.5043 27.2117 17.3807C26.088 16.2572 24.5644 15.6252 22.9753 15.6234ZM22.9753 25.9209C20.6016 25.9209 18.6694 23.9897 18.6694 21.6159C18.6694 19.2422 20.6016 17.31 22.9753 17.31C25.3491 17.31 27.2812 19.2422 27.2812 21.6159C27.2812 23.9897 25.3491 25.9209 22.9753 25.9209Z" fill="#757575"/>
<path id="Vector_3" d="M24.1978 20.0821L22.3491 21.5718L21.8888 20.984C21.8203 20.8969 21.7353 20.824 21.6388 20.7697C21.5422 20.7154 21.4358 20.6806 21.3258 20.6673C21.2157 20.6541 21.1042 20.6627 20.9974 20.6926C20.8907 20.7225 20.7909 20.7731 20.7038 20.8415C20.6166 20.91 20.5438 20.9949 20.4894 21.0915C20.4351 21.1881 20.4003 21.2945 20.3871 21.4045C20.3738 21.5145 20.3824 21.6261 20.4123 21.7328C20.4422 21.8396 20.4928 21.9394 20.5612 22.0265L21.5494 23.2865C21.6181 23.3746 21.7037 23.4481 21.8012 23.5027C21.8986 23.5574 22.006 23.5921 22.1169 23.6048C22.2279 23.6175 22.3404 23.6081 22.4476 23.5769C22.5549 23.5458 22.655 23.4936 22.7419 23.4234L25.2563 21.3984C25.4308 21.258 25.5424 21.0541 25.5666 20.8314C25.5908 20.6087 25.5255 20.3856 25.3852 20.211C25.2448 20.0365 25.0409 19.9249 24.8182 19.9007C24.5955 19.8765 24.3724 19.9418 24.1978 20.0821Z" fill="#757575"/>
</g>
</g>
</svg>
