<svg width="24" height="25" viewBox="0 0 24 25" fill="none" xmlns="http://www.w3.org/2000/svg">
<g id="Frame">
<g id="Group">
<g id="Layer 2">
<path id="Vector" d="M12 22.7144C11.7024 22.7141 11.4098 22.6377 11.15 22.4924L7.78 20.6204C6.10454 19.6889 4.70845 18.3266 3.73619 16.6745C2.76393 15.0223 2.25083 13.1404 2.25 11.2234V6.0274C2.24995 5.59503 2.41024 5.17799 2.69988 4.85696C2.98951 4.53593 3.3879 4.3337 3.818 4.2894C5.15883 4.14728 6.47845 3.84892 7.75 3.4004C8.91583 2.98829 10.0342 2.45257 11.086 1.8024C11.3611 1.63403 11.6774 1.54492 12 1.54492C12.3226 1.54492 12.6389 1.63403 12.914 1.8024C13.9659 2.45239 15.0842 2.9881 16.25 3.4004C17.5216 3.84892 18.8412 4.14728 20.182 4.2894C20.6121 4.3337 21.0105 4.53593 21.3001 4.85696C21.5898 5.17799 21.75 5.59503 21.75 6.0274V11.2234C21.7492 13.1404 21.2361 15.0223 20.2638 16.6745C19.2916 18.3266 17.8955 19.6889 16.22 20.6204L12.85 22.4934C12.5902 22.6384 12.2976 22.7145 12 22.7144ZM12 3.0444C11.956 3.04401 11.9127 3.05578 11.875 3.0784C10.732 3.78486 9.51675 4.36717 8.25 4.8154C6.86825 5.30308 5.43416 5.62729 3.977 5.7814C3.9151 5.78666 3.85743 5.81496 3.8154 5.8607C3.77337 5.90643 3.75003 5.96628 3.75 6.0284V11.2244C3.75054 12.8739 4.19192 14.4933 5.02846 15.915C5.865 17.3366 7.06629 18.5089 8.508 19.3104L11.878 21.1824C11.9149 21.2032 11.9566 21.2141 11.999 21.2141C12.0414 21.2141 12.0831 21.2032 12.12 21.1824L15.492 19.3104C16.9337 18.5089 18.135 17.3366 18.9715 15.915C19.8081 14.4933 20.2495 12.8739 20.25 11.2244V6.0274C20.25 5.96528 20.2266 5.90543 20.1846 5.8597C20.1426 5.81396 20.0849 5.78566 20.023 5.7804C18.5658 5.62629 17.1317 5.30208 15.75 4.8144C14.4833 4.3668 13.2681 3.78517 12.125 3.0794C12.0874 3.05623 12.0441 3.0441 12 3.0444Z" fill="#757575"/>
<path id="Vector_2" d="M11.5 14.3577C11.3162 14.3578 11.1389 14.2902 11.002 14.1677L8.75197 12.1677C8.61246 12.0333 8.53037 11.8501 8.5229 11.6565C8.51543 11.4629 8.58315 11.2739 8.71189 11.1292C8.84063 10.9844 9.02039 10.8951 9.21353 10.8799C9.40666 10.8647 9.59818 10.9248 9.74797 11.0477L11.452 12.5617L14.703 9.09467C14.7699 9.02115 14.8508 8.96168 14.9409 8.91971C15.031 8.87774 15.1286 8.85411 15.228 8.85019C15.3273 8.84627 15.4264 8.86215 15.5196 8.89689C15.6127 8.93162 15.6981 8.98454 15.7706 9.05255C15.8431 9.12056 15.9014 9.20231 15.942 9.29305C15.9827 9.38379 16.0048 9.4817 16.0073 9.58109C16.0098 9.68048 15.9924 9.77936 15.9563 9.872C15.9202 9.96463 15.866 10.0492 15.797 10.1207L12.047 14.1207C11.9769 14.1956 11.8922 14.2553 11.7981 14.2961C11.704 14.3369 11.6025 14.3578 11.5 14.3577Z" fill="#757575"/>
</g>
</g>
</g>
</svg>
