<svg width="40" height="40" viewBox="0 0 40 40" fill="none" xmlns="http://www.w3.org/2000/svg">
<g id="Frame">
<g id="Group">
<path id="Vector" d="M11.9831 15.5607C13.7146 15.5591 15.3747 14.8706 16.5992 13.6464C17.8236 12.4222 18.5124 10.7622 18.5144 9.03072C18.1544 0.366973 5.81001 0.368848 5.45251 9.03135C5.4545 10.7626 6.14312 12.4224 7.3673 13.6466C8.59148 14.8707 10.2513 15.5594 11.9825 15.5613L11.9831 15.5607ZM11.9831 3.7501C13.3834 3.75142 14.7259 4.30826 15.7161 5.2984C16.7062 6.28854 17.2631 7.63108 17.2644 9.03135C16.9981 16.0257 6.96751 16.0245 6.70314 9.03135C6.70446 7.6313 7.26113 6.28895 8.251 5.29884C9.24087 4.30874 10.5831 3.75175 11.9831 3.7501Z" fill="#FEFEFE"/>
<path id="Vector_2" d="M11.9831 11.2726C11.1913 11.2726 10.6394 10.8464 10.6394 10.4639C10.6394 10.2981 10.5735 10.1392 10.4563 10.0219C10.3391 9.90473 10.1802 9.83889 10.0144 9.83889C9.84863 9.83889 9.68966 9.90473 9.57245 10.0219C9.45524 10.1392 9.38939 10.2981 9.38939 10.4639C9.43197 10.9743 9.65239 11.4535 10.0122 11.818C10.372 12.1825 10.8483 12.4091 11.3581 12.4583V12.9676C11.3581 13.1334 11.424 13.2924 11.5412 13.4096C11.6584 13.5268 11.8174 13.5926 11.9831 13.5926C12.1489 13.5926 12.3079 13.5268 12.4251 13.4096C12.5423 13.2924 12.6081 13.1334 12.6081 12.9676V12.4583C13.1178 12.409 13.594 12.1824 13.9538 11.8181C14.3135 11.4538 14.534 10.9747 14.5769 10.4645C14.5769 9.30951 13.4375 8.40576 11.9831 8.40576C11.1913 8.40576 10.6394 7.98014 10.6394 7.59701C10.7056 6.54076 13.2613 6.53951 13.3269 7.59701C13.3269 7.76277 13.3927 7.92174 13.5099 8.03895C13.6272 8.15616 13.7861 8.22201 13.9519 8.22201C14.1177 8.22201 14.2766 8.15616 14.3938 8.03895C14.511 7.92174 14.5769 7.76277 14.5769 7.59701C14.534 7.08678 14.3135 6.60775 13.9538 6.24342C13.594 5.87908 13.1178 5.65254 12.6081 5.60326V5.09326C12.6081 4.9275 12.5423 4.76853 12.4251 4.65132C12.3079 4.53411 12.1489 4.46826 11.9831 4.46826C11.8174 4.46826 11.6584 4.53411 11.5412 4.65132C11.424 4.76853 11.3581 4.9275 11.3581 5.09326V5.60264C8.38439 6.20889 8.97439 9.66014 11.9831 9.65576C13.7469 9.70201 13.7456 11.2264 11.9831 11.2726ZM6.48251 23.3239L5.80314 23.657C5.65429 23.7299 5.5405 23.859 5.48682 24.0159C5.43314 24.1727 5.44395 24.3444 5.51689 24.4933C5.58982 24.6421 5.7189 24.7559 5.87573 24.8096C6.03256 24.8633 6.20429 24.8524 6.35314 24.7795C14.7076 20.8114 22.1559 15.1662 28.2344 8.19514V9.03076C28.2344 9.19652 28.3002 9.35549 28.4174 9.4727C28.5347 9.58991 28.6936 9.65576 28.8594 9.65576C29.0252 9.65576 29.1841 9.58991 29.3013 9.4727C29.4185 9.35549 29.4844 9.19652 29.4844 9.03076V6.50014C29.4775 6.33659 29.4094 6.1816 29.2937 6.06585C29.1779 5.9501 29.0229 5.88204 28.8594 5.87514H26.3288C26.163 5.87514 26.004 5.94098 25.8868 6.05819C25.7696 6.1754 25.7038 6.33438 25.7038 6.50014C25.7038 6.6659 25.7696 6.82487 25.8868 6.94208C26.004 7.05929 26.163 7.12514 26.3288 7.12514H27.5056C21.6677 13.8935 14.5153 19.4051 6.48251 23.3251V23.3239ZM36.4538 36.2501H34.5475V14.0933C34.5475 13.9275 34.4817 13.7685 34.3645 13.6513C34.2472 13.5341 34.0883 13.4683 33.9225 13.4683H28.86C28.6943 13.4683 28.5353 13.5341 28.4181 13.6513C28.3009 13.7685 28.235 13.9275 28.235 14.0933V36.2501H26.9531V19.1564C26.9531 18.9906 26.8873 18.8317 26.7701 18.7144C26.6529 18.5972 26.4939 18.5314 26.3281 18.5314H21.2656C21.0999 18.5314 20.9409 18.5972 20.8237 18.7144C20.7065 18.8317 20.6406 18.9906 20.6406 19.1564V36.2501H19.3594V24.2183C19.3594 24.0525 19.2935 23.8935 19.1763 23.7763C19.0591 23.6591 18.9002 23.5933 18.7344 23.5933H13.6719C13.5061 23.5933 13.3472 23.6591 13.2299 23.7763C13.1127 23.8935 13.0469 24.0525 13.0469 24.2183V36.2501H11.7656V29.2814C11.7656 29.1156 11.6998 28.9567 11.5826 28.8394C11.4654 28.7222 11.3064 28.6564 11.1406 28.6564H6.07814C5.91238 28.6564 5.75341 28.7222 5.6362 28.8394C5.51899 28.9567 5.45314 29.1156 5.45314 29.2814V36.2501H3.54626C3.3805 36.2501 3.22153 36.316 3.10432 36.4332C2.98711 36.5504 2.92126 36.7094 2.92126 36.8751C2.92126 37.0409 2.98711 37.1999 3.10432 37.3171C3.22153 37.4343 3.3805 37.5001 3.54626 37.5001H36.4538C36.6195 37.5001 36.7785 37.4343 36.8957 37.3171C37.0129 37.1999 37.0788 37.0409 37.0788 36.8751C37.0788 36.7094 37.0129 36.5504 36.8957 36.4332C36.7785 36.316 36.6195 36.2501 36.4538 36.2501ZM6.70314 36.2501V29.9064H10.5156V36.2501H6.70314ZM14.2969 36.2501V24.8433H18.1094V36.2501H14.2969ZM21.8906 36.2501V19.7814H25.7031V36.2501H21.8906ZM29.4856 36.2501V14.7183H33.2981V36.2501H29.4856Z" fill="#FEFEFE"/>
</g>
</g>
</svg>
