<svg width="30" height="30" viewBox="0 0 30 30" fill="none" xmlns="http://www.w3.org/2000/svg">
<g id="Frame">
<g id="Group">
<path id="Vector" d="M27.834 19.926C27.2082 19.623 26.5298 19.4438 25.836 19.398C26.1386 18.6498 26.3033 17.8529 26.322 17.046C26.463 12.801 23.1 9.72003 21.669 8.40003L21.519 8.26503C21.312 8.07303 21.123 7.88403 20.946 7.69503C21.1287 7.5412 21.2755 7.34921 21.3761 7.13257C21.4766 6.91592 21.5285 6.67987 21.528 6.44103V6.41103C21.5269 6.08123 21.4268 5.75937 21.2406 5.48712C21.0545 5.21487 20.7909 5.00477 20.484 4.88403C20.8277 3.92536 21.0681 2.93273 21.201 1.92303C21.2218 1.75081 21.1937 1.57621 21.12 1.4192C21.0462 1.2622 20.9297 1.12913 20.7838 1.03523C20.638 0.941331 20.4686 0.890386 20.2952 0.888227C20.1217 0.886069 19.9512 0.932783 19.803 1.02303C19.3434 1.27758 18.8521 1.47025 18.342 1.59603C17.8502 1.72397 17.3338 1.72397 16.842 1.59603C16.3286 1.47022 15.8342 1.27652 15.372 1.02003C15.2229 0.930005 15.0515 0.883933 14.8774 0.887117C14.7033 0.890302 14.5337 0.942614 14.388 1.03803C14.2432 1.13036 14.1279 1.26217 14.0556 1.41792C13.9833 1.57367 13.9571 1.74685 13.98 1.91703C14.1149 2.93056 14.3562 3.92706 14.7 4.89003C14.3923 5.00995 14.1279 5.21976 13.9411 5.49212C13.7544 5.76449 13.654 6.08679 13.653 6.41703V6.44703C13.6529 6.71363 13.7179 6.97622 13.8423 7.212C13.9668 7.44779 14.1469 7.64964 14.367 7.80003C14.232 7.94403 14.067 8.10003 13.893 8.26503L13.749 8.40003C12.3 9.72003 8.955 12.798 9.093 17.043C9.093 17.265 9.12 17.478 9.144 17.691H6.807V16.728C6.807 16.5689 6.74379 16.4163 6.63126 16.3038C6.51874 16.1912 6.36613 16.128 6.207 16.128H1.947C1.78787 16.128 1.63526 16.1912 1.52274 16.3038C1.41021 16.4163 1.347 16.5689 1.347 16.728V26.958C1.347 27.1172 1.41021 27.2698 1.52274 27.3823C1.63526 27.4948 1.78787 27.558 1.947 27.558H6.207C6.36613 27.558 6.51874 27.4948 6.63126 27.3823C6.74379 27.2698 6.807 27.1172 6.807 26.958V26.178L13.341 28.815C13.8459 29.0049 14.3797 29.1064 14.919 29.115C16.119 29.115 17.169 28.596 18.396 27.984L18.534 27.915H18.564L27.864 22.572C28.1062 22.4451 28.3083 22.2533 28.4476 22.018C28.5869 21.7828 28.6581 21.5134 28.653 21.24C28.6551 20.9659 28.5792 20.6968 28.4342 20.4642C28.2892 20.2315 28.081 20.0449 27.834 19.926ZM15.486 6.90003H15.3C15.1828 6.90003 15.0703 6.85366 14.9871 6.77104C14.9039 6.68842 14.8568 6.57626 14.856 6.45903V6.42903C14.8548 6.36997 14.8654 6.31126 14.8872 6.25635C14.909 6.20144 14.9415 6.15142 14.9828 6.10924C15.0242 6.06705 15.0735 6.03354 15.128 6.01066C15.1824 5.98779 15.2409 5.97601 15.3 5.97603H19.887C20.004 5.97603 20.1161 6.02249 20.1988 6.10519C20.2815 6.18789 20.328 6.30006 20.328 6.41703V6.44703C20.3296 6.50594 20.3194 6.56458 20.2979 6.61948C20.2765 6.67437 20.2443 6.72442 20.2032 6.76665C20.162 6.80888 20.1129 6.84244 20.0586 6.86535C20.0043 6.88826 19.9459 6.90005 19.887 6.90003H15.486ZM16.524 2.76603C17.2218 2.95208 17.9562 2.95208 18.654 2.76603C19.0912 2.65125 19.5186 2.50177 19.932 2.31903C19.774 3.1556 19.5462 3.97748 19.251 4.77603H15.921C15.6279 3.97703 15.4011 3.15526 15.243 2.31903C15.6577 2.50128 16.086 2.65074 16.524 2.76603ZM14.559 9.30003L14.706 9.16503C15.069 8.83472 15.4079 8.47881 15.72 8.10003H19.695C20.0057 8.4734 20.3415 8.82521 20.7 9.15303L20.853 9.29103C22.164 10.491 25.239 13.311 25.116 17.004C25.1075 17.8727 24.8794 18.7252 24.453 19.482C23.9929 19.5786 23.5465 19.7318 23.124 19.938L19.89 21.495C19.8032 21.0234 19.5553 20.5966 19.1887 20.2874C18.8221 19.9783 18.3595 19.806 17.88 19.8H14.4C13.3213 18.6892 11.902 17.9711 10.368 17.76C10.3273 17.5098 10.3022 17.2573 10.293 17.004C10.173 13.311 13.245 10.5 14.559 9.30003ZM2.559 26.37V17.328H5.619V26.358L2.559 26.37ZM27.3 21.489L18 26.835L17.88 26.895C16.239 27.714 15.246 28.209 13.785 27.693L6.807 24.9V18.9H9.399C10.2067 18.9003 11.0052 19.0716 11.742 19.4025C12.4788 19.7334 13.1372 20.2165 13.674 20.82C13.7302 20.8831 13.799 20.9336 13.876 20.9682C13.9531 21.0029 14.0365 21.0209 14.121 21.021H17.88C18.0798 21.024 18.2723 21.0972 18.4236 21.2277C18.575 21.3582 18.6756 21.5378 18.708 21.735C18.7134 21.9009 18.665 22.064 18.57 22.2C18.57 22.2 18.57 22.2 18.552 22.224C18.48 22.3149 18.389 22.3888 18.2853 22.4407C18.1817 22.4925 18.0679 22.521 17.952 22.524H11.241C11.0819 22.524 10.9293 22.5872 10.8167 22.6998C10.7042 22.8123 10.641 22.9649 10.641 23.124C10.641 23.2832 10.7042 23.4358 10.8167 23.5483C10.9293 23.6608 11.0819 23.724 11.241 23.724H17.946C18.2034 23.7249 18.4585 23.6747 18.6964 23.5763C18.9343 23.478 19.1503 23.3334 19.332 23.151C19.371 23.112 19.41 23.07 19.446 23.028L23.646 21.006C24.0235 20.8143 24.4282 20.6818 24.846 20.613C25.6843 20.4916 26.5397 20.6265 27.3 21C27.3426 21.0193 27.3786 21.0506 27.4036 21.09C27.4287 21.1294 27.4417 21.1753 27.441 21.222C27.4452 21.2753 27.4342 21.3287 27.4092 21.376C27.3843 21.4233 27.3464 21.4625 27.3 21.489Z" fill="#757575"/>
<path id="Vector_2" d="M18.6 16.6051H17.22C17.1752 16.6055 17.1308 16.597 17.0894 16.5802C17.0479 16.5633 17.0101 16.5384 16.9784 16.5069C16.9466 16.4754 16.9213 16.4379 16.9041 16.3966C16.8869 16.3552 16.878 16.3109 16.878 16.2661C16.878 16.107 16.8148 15.9544 16.7023 15.8419C16.5897 15.7293 16.4371 15.6661 16.278 15.6661C16.1189 15.6661 15.9663 15.7293 15.8537 15.8419C15.7412 15.9544 15.678 16.107 15.678 16.2661C15.6788 16.6746 15.8416 17.066 16.1307 17.3545C16.4198 17.6431 16.8116 17.8051 17.22 17.8051H17.31V18.2551C17.31 18.4143 17.3732 18.5669 17.4857 18.6794C17.5983 18.7919 17.7509 18.8551 17.91 18.8551C18.0691 18.8551 18.2217 18.7919 18.3343 18.6794C18.4468 18.5669 18.51 18.4143 18.51 18.2551V17.8051H18.6C18.8021 17.8051 19.0022 17.7653 19.189 17.688C19.3757 17.6106 19.5453 17.4973 19.6882 17.3544C19.8311 17.2115 19.9445 17.0418 20.0219 16.8551C20.0992 16.6684 20.139 16.4682 20.139 16.2661V15.2701C20.1382 14.8622 19.9758 14.4712 19.6874 14.1828C19.3989 13.8943 19.0079 13.7319 18.6 13.7311H17.22C17.1752 13.7315 17.1308 13.723 17.0894 13.7062C17.0479 13.6893 17.0101 13.6644 16.9784 13.6329C16.9466 13.6014 16.9213 13.5639 16.9041 13.5226C16.8869 13.4812 16.878 13.4369 16.878 13.3921V12.3961C16.8788 12.3059 16.9152 12.2197 16.9792 12.1562C17.0433 12.0927 17.1298 12.0571 17.22 12.0571H18.6C18.6897 12.0579 18.7754 12.0939 18.8388 12.1573C18.9023 12.2207 18.9382 12.3065 18.939 12.3961C18.939 12.5553 19.0022 12.7079 19.1147 12.8204C19.2273 12.9329 19.3799 12.9961 19.539 12.9961C19.6981 12.9961 19.8507 12.9329 19.9633 12.8204C20.0758 12.7079 20.139 12.5553 20.139 12.3961C20.139 12.194 20.0992 11.9939 20.0219 11.8072C19.9445 11.6205 19.8311 11.4508 19.6882 11.3079C19.5453 11.165 19.3757 11.0516 19.189 10.9743C19.0022 10.8969 18.8021 10.8571 18.6 10.8571H18.51V10.4071C18.51 10.248 18.4468 10.0954 18.3343 9.98287C18.2217 9.87034 18.0691 9.80713 17.91 9.80713C17.7509 9.80713 17.5983 9.87034 17.4857 9.98287C17.3732 10.0954 17.31 10.248 17.31 10.4071V10.8571H17.22C16.8116 10.8571 16.4198 11.0192 16.1307 11.3077C15.8416 11.5962 15.6788 11.9877 15.678 12.3961V13.3921C15.6788 13.8006 15.8416 14.192 16.1307 14.4805C16.4198 14.7691 16.8116 14.9311 17.22 14.9311H18.6C18.6897 14.9319 18.7754 14.9679 18.8388 15.0313C18.9023 15.0947 18.9382 15.1805 18.939 15.2701V16.2661C18.939 16.356 18.9033 16.4423 18.8397 16.5058C18.7761 16.5694 18.6899 16.6051 18.6 16.6051Z" fill="#757575"/>
</g>
</g>
</svg>
