<svg width="24" height="24" viewBox="0 0 24 24" fill="none" xmlns="http://www.w3.org/2000/svg">
<g id="Frame">
<g id="Group">
<path id="Vector" d="M23.4703 11.4656C22.1719 10.2609 17.5125 6.32812 12 6.32812C6.4875 6.32812 1.82812 10.2609 0.529688 11.4703C0.370313 11.6203 0.28125 11.8266 0.28125 12.0422C0.28125 12.2578 0.370313 12.4688 0.529688 12.6141C1.82812 13.8188 6.4875 17.7516 12 17.7516C17.5125 17.7516 22.1719 13.8187 23.4703 12.6094C23.6297 12.4594 23.7188 12.2531 23.7188 12.0375C23.7188 11.8219 23.6297 11.6156 23.4703 11.4656ZM23.1516 12.2719C21.8859 13.4484 17.3438 17.2875 12 17.2875C6.65625 17.2875 2.11406 13.4484 0.848438 12.2719C0.782813 12.2109 0.745312 12.1266 0.745312 12.0375C0.745312 11.9484 0.782813 11.8641 0.848438 11.8031C2.11406 10.6266 6.66094 6.7875 12 6.7875C17.3438 6.7875 21.8859 10.6266 23.1516 11.8031C23.2172 11.8641 23.2547 11.9484 23.2547 12.0375C23.2547 12.1266 23.2172 12.2109 23.1516 12.2719Z" fill="#757575"/>
<path id="Vector_2" d="M12 7.85156C9.68901 7.85156 7.80933 9.73125 7.80933 12.0422C7.80933 14.3531 9.68901 16.2328 12 16.2328C14.3109 16.2328 16.1906 14.3531 16.1906 12.0422C16.1906 9.73125 14.3109 7.85156 12 7.85156ZM12 15.7641C9.94683 15.7641 8.27339 14.0953 8.27339 12.0375C8.27339 9.98437 9.94214 8.31094 12 8.31094C14.0531 8.31094 15.7265 9.97969 15.7265 12.0375C15.7265 14.0953 14.0531 15.7641 12 15.7641Z" fill="#757575"/>
<path id="Vector_3" d="M12 13.2283C12.655 13.2283 13.186 12.6974 13.186 12.0424C13.186 11.3874 12.655 10.8564 12 10.8564C11.345 10.8564 10.8141 11.3874 10.8141 12.0424C10.8141 12.6974 11.345 13.2283 12 13.2283Z" fill="#757575"/>
<path id="Vector_4" d="M17.2078 17.8875L18.4828 19.0312L18.7922 18.6891L17.5172 17.5453L17.2078 17.8875ZM6.79216 6.1125L5.51716 4.96875L5.20778 5.31094L6.48278 6.45469L6.79216 6.1125ZM14.2875 18.5766L14.9812 20.3156L15.4125 20.1469L14.7187 18.4078L14.2875 18.5766ZM8.9246 3.66141L9.79417 5.40052L9.37933 5.60794L8.50975 3.86888L8.9246 3.66141ZM11.564 20.7562L12.0281 20.7656L12.0656 19.0266L11.6062 19.0172L11.564 20.7562ZM12.4359 3.24375L11.9718 3.23438L11.9343 4.97344L12.3984 4.98281L12.4359 3.24375ZM8.21247 19.9969L8.63903 20.1844L9.40778 18.4453L8.98122 18.2578L8.21247 19.9969ZM15.4123 3.80016L15.8271 4.00758L14.9576 5.74664L14.5428 5.53922L15.4123 3.80016ZM5.19349 18.7497L4.89185 18.397L6.22778 17.2544L6.52942 17.6071L5.19349 18.7497ZM18.9101 5.24362L19.1886 5.61487L17.6623 6.75956L17.3839 6.38831L18.9101 5.24362Z" fill="#757575"/>
</g>
</g>
</svg>
