<svg width="30" height="30" viewBox="0 0 30 30" fill="none" xmlns="http://www.w3.org/2000/svg">
<g id="Frame">
<g id="Group">
<path id="Vector" d="M7.10375 27.5813C6.91991 27.5814 6.73832 27.5409 6.57193 27.4627C6.40553 27.3846 6.25841 27.2707 6.14107 27.1292C6.02373 26.9877 5.93904 26.822 5.89305 26.644C5.84706 26.466 5.8409 26.2801 5.875 26.0994L6.4025 23.2869C6.41959 23.1796 6.40975 23.0698 6.37385 22.9672C6.33796 22.8647 6.27715 22.7727 6.19688 22.6994C5.02877 21.5845 4.09889 20.2443 3.46347 18.7598C2.82806 17.2753 2.50029 15.6773 2.5 14.0626C2.54563 10.7901 3.88719 7.66938 6.23047 5.38468C8.57375 3.09998 11.7275 1.83785 15 1.87507C18.2725 1.83785 21.4263 3.09998 23.7695 5.38468C26.1128 7.66938 27.4544 10.7901 27.5 14.0626C27.4544 17.335 26.1128 20.4558 23.7695 22.7405C21.4263 25.0252 18.2725 26.2873 15 26.2501C13.7558 26.2484 12.5186 26.0637 11.3281 25.7019C11.2471 25.6757 11.1618 25.6658 11.0769 25.6726C10.9921 25.6795 10.9095 25.703 10.8338 25.7419L7.69813 27.4294C7.51569 27.5287 7.31142 27.5809 7.10375 27.5813ZM15 3.12507C12.0589 3.08765 9.22304 4.21803 7.11413 6.26836C5.00523 8.31868 3.79543 11.1216 3.75 14.0626C3.75095 15.5098 4.04544 16.9418 4.61566 18.2719C5.18588 19.6021 6.01997 20.8027 7.0675 21.8013C7.29616 22.0184 7.46728 22.2888 7.56547 22.5884C7.66366 22.888 7.68583 23.2073 7.63 23.5176L7.10313 26.3301L10.2388 24.6426C10.4592 24.5251 10.7008 24.4526 10.9495 24.4292C11.1982 24.4058 11.449 24.432 11.6875 24.5063C12.7614 24.8328 13.8776 24.9991 15 25.0001C17.9411 25.0375 20.777 23.9071 22.8859 21.8568C24.9948 19.8065 26.2046 17.0035 26.25 14.0626C26.2046 11.1216 24.9948 8.31868 22.8859 6.26836C20.777 4.21803 17.9411 3.08765 15 3.12507Z" fill="#757575"/>
<path id="Vector_2" d="M15 18.125C14.8342 18.125 14.6753 18.0592 14.5581 17.9419C14.4408 17.8247 14.375 17.6658 14.375 17.5V15.4375C14.3746 15.0333 14.5055 14.64 14.7479 14.3166C14.9904 13.9932 15.3313 13.7573 15.7194 13.6444C16.1632 13.511 16.5612 13.2569 16.869 12.9105C17.1768 12.564 17.3822 12.1389 17.4623 11.6824C17.5425 11.226 17.4942 10.7563 17.3228 10.3257C17.1515 9.89513 16.8638 9.52066 16.4919 9.2441C16.1201 8.96754 15.6787 8.79978 15.217 8.75955C14.7554 8.71932 14.2916 8.8082 13.8775 9.01627C13.4634 9.22434 13.1153 9.54341 12.8721 9.93785C12.6288 10.3323 12.5 10.7866 12.5 11.25C12.5 11.4158 12.4342 11.5747 12.3169 11.6919C12.1997 11.8092 12.0408 11.875 11.875 11.875C11.7092 11.875 11.5503 11.8092 11.4331 11.6919C11.3158 11.5747 11.25 11.4158 11.25 11.25C11.251 10.2557 11.6464 9.30249 12.3494 8.59945C13.0525 7.8964 14.0057 7.50099 15 7.5C15.9007 7.49919 16.7716 7.82259 17.4535 8.41106C18.1353 8.99954 18.5826 9.81378 18.7135 10.7049C18.8445 11.596 18.6503 12.5045 18.1665 13.2643C17.6827 14.024 16.9416 14.5842 16.0787 14.8425C15.949 14.8794 15.8348 14.9574 15.753 15.0646C15.6712 15.1718 15.6263 15.3026 15.625 15.4375V17.5C15.625 17.6658 15.5592 17.8247 15.4419 17.9419C15.3247 18.0592 15.1658 18.125 15 18.125Z" fill="#757575"/>
<path id="Vector_3" d="M15 20.9375C15.5178 20.9375 15.9375 20.5178 15.9375 20C15.9375 19.4822 15.5178 19.0625 15 19.0625C14.4822 19.0625 14.0625 19.4822 14.0625 20C14.0625 20.5178 14.4822 20.9375 15 20.9375Z" fill="#757575"/>
</g>
</g>
</svg>
