<svg width="91" height="96" viewBox="0 0 91 96" fill="none" xmlns="http://www.w3.org/2000/svg">
<g id="Group 1686553234">
<path id="Vector" d="M78.9773 41.5786L48.1121 42.0584C48.1121 42.0584 44.9136 41.8985 43.9541 46.0565C43.9541 46.0565 39.641 62.3479 39.6362 62.3687C39.2795 63.7136 39.2332 66.6738 41.2482 66.6898C42.2477 66.6978 43.2456 66.7042 44.2451 66.7122C45.9036 66.725 47.562 66.7378 49.2204 66.749C51.0723 66.7634 52.9258 66.7761 54.7777 66.7905C56.3593 66.8017 57.941 66.8145 59.5226 66.8257C60.3686 66.8321 61.213 66.8385 62.059 66.8449H62.1837C63.5831 66.7538 65.7308 66.4515 68.1009 65.4072C73.0377 63.229 75.5261 59.3285 76.4169 57.8908C77.5492 56.0629 78.2688 53.6192 79.7753 48.7752C80.0696 47.83 80.351 46.8801 80.6197 45.9269C80.9252 44.8442 81.4497 43.4193 80.7349 42.3782C80.1975 41.5946 79.1212 41.5786 78.9757 41.5786H78.9773Z" fill="url(#paint0_linear_14179_3710)"/>
<path id="Vector_2" d="M40.9154 40.9388C40.9154 40.9388 17.4274 40.9388 17.3139 40.9388C14.5488 40.9388 16.3991 36.0835 16.8005 34.6906C17.6257 31.8312 18.4493 28.9701 19.2745 26.1107C19.8774 24.0189 20.4308 21.9063 21.0849 19.8305C21.0849 19.8289 26.6838 2.079 50.5108 0.319847L88.2527 0C88.2527 0 90.1718 0.319849 90.0118 2.55878L86.8134 15.0328C86.8134 15.0328 83.455 25.7477 72.9 26.3874L49.0715 26.8671C49.0715 26.8671 47.1524 26.8671 46.3528 28.7862L43.6341 38.3816C43.6341 38.3816 43.3142 40.9404 40.9154 40.9404V40.9388Z" fill="url(#paint1_linear_14179_3710)"/>
<path id="Vector_3" d="M15.9865 39.0694C17.138 39.0902 18.2894 39.1094 19.4409 39.1302C22.0348 39.175 24.6272 39.2213 27.2211 39.2661L35.4764 39.41C36.5111 39.4276 37.5442 39.4468 38.5789 39.4644C39.7095 39.4836 40.7858 39.6803 41.7885 39.039C42.82 38.3801 42.9352 37.4078 43.1559 36.3011C43.3734 35.2153 43.5909 34.1278 43.8084 33.0419C44.1858 31.1564 44.1954 29.1813 45.414 27.5885C46.583 26.0612 48.1903 25.6438 50.0326 25.6151C52.3035 25.5799 54.5728 25.5431 56.8437 25.5079C60.7011 25.4471 64.56 25.3864 68.4174 25.3272C69.5512 25.3096 70.6883 25.3752 71.8205 25.2888C76.1257 24.9594 80.909 22.7348 83.2791 19.0038C84.2658 17.451 84.8303 15.6182 85.4636 13.8975C86.0473 12.3094 86.6007 10.7102 87.0996 9.09337C87.6066 7.45095 88.0735 5.78775 88.3806 4.09576C88.5917 2.93792 88.846 1.57697 88.5053 0.417522C88.4958 0.385538 88.4446 0.163245 88.4142 0.158447C88.4142 0.158447 90.3333 0.478294 90.1733 2.71722C89.676 4.65709 89.1786 6.59697 88.6813 8.53684C88.3406 9.8674 87.9984 11.198 87.6578 12.5285C87.2643 14.0654 86.8693 15.6742 86.1545 17.1215C85.6459 18.1514 85.0526 19.1414 84.3793 20.0737C82.5674 22.5845 80.1318 24.6667 77.1972 25.7318C75.8874 26.2068 74.4593 26.517 73.0615 26.5442L50.3572 27.0016C50.3572 27.0016 47.1907 26.6578 46.4519 29.1606L43.794 38.5401C43.794 38.5401 43.4741 41.0988 41.0753 41.0988H17.8832C17.8832 41.0988 15.6843 41.3579 15.9865 39.0694Z" fill="#117668"/>
<path id="Vector_4" d="M15.8268 38.9093C15.8684 38.4519 15.9483 37.7642 16.1275 36.9406C16.265 36.3105 16.3993 35.8708 16.6072 35.1815C16.8791 34.2763 17.1302 33.3664 17.4068 32.4628C17.941 30.7212 18.1681 29.8273 19.166 26.3857C20.5285 21.684 21.2194 19.3123 21.7248 18.2296C21.9423 17.7642 22.8906 15.7652 24.6034 13.4319C25.6109 12.0582 27.7459 9.39064 31.1602 6.87505C35.3614 3.77893 39.5162 2.3764 42.2541 1.70312C34.0069 6.35849 29.2236 11.5944 26.6824 14.8712C25.7724 16.0435 24.8465 17.2381 23.8038 19.0292C20.85 24.102 20.77 27.4156 17.8866 34.3819C17.0566 36.3873 16.2954 37.969 15.8268 38.9093Z" fill="#DCFAB8"/>
<g id="Group">
<path id="Vector_5" d="M0.295142 92.1143L7.97146 59.8097C8.54399 57.3405 9.90973 53.2209 13.4089 49.5746C15.4623 47.4349 17.9667 45.834 20.7158 44.7417C23.3673 43.6895 26.1995 42.8834 29.0701 42.6052C32.1567 42.3061 35.2624 42.4996 38.3553 42.5364C39.4556 42.5492 40.8741 42.6499 41.5538 43.6559C42.1343 44.5147 41.8848 45.6485 41.7137 46.2146C41.3267 47.4972 40.9956 48.799 40.6374 50.0896C40.2792 51.3802 39.9161 52.6867 39.5547 53.9853C39.1933 55.2839 38.8335 56.5825 38.472 57.8811C38.1106 59.1796 37.7508 60.4782 37.3894 61.7768C37.0279 63.0754 36.6681 64.3739 36.3067 65.6725C35.9453 66.9711 35.5854 68.2697 35.224 69.5683C34.8626 70.8668 34.5027 72.1654 34.1413 73.464C33.7799 74.7626 33.4201 76.0611 33.0586 77.3597C32.6972 78.6583 32.3374 79.9569 31.976 81.2554C31.6145 82.554 31.2547 83.8526 30.8933 85.1512C30.5318 86.4498 30.1752 87.7355 29.817 89.0261C29.7818 89.1509 29.7482 89.274 29.713 89.3988C29.3884 90.2336 28.56 92.0359 26.6745 93.5568C25.5694 94.4491 24.274 95.0968 22.8987 95.4535C22.267 95.6166 21.6145 95.6725 20.9652 95.7013C20.3047 95.7269 19.6427 95.7461 18.9806 95.7717H18.971C18.5888 95.7877 18.2034 95.8165 17.8211 95.8165C17.8131 95.8165 17.8051 95.8165 17.7972 95.8165C16.03 95.8789 14.2628 95.9252 12.4941 95.9556C12.4765 95.9556 12.4589 95.9556 12.4413 95.9556C8.931 96.0164 5.51664 96.0132 2.20623 95.9556C1.51696 95.9908 1.10436 95.7573 0.926841 95.6358C0.0440639 95.0329 -0.269386 93.5919 0.287147 92.1175L0.295142 92.1143Z" fill="url(#paint2_linear_14179_3710)"/>
<path id="Vector_6" d="M16.2984 95.8613C16.2984 95.8613 25.8827 95.7925 28.2815 87.9563L39.796 48.2953C39.796 48.2953 41.0978 44.1373 41.0866 43.1777C41.0866 43.1777 42.3548 43.8174 41.7151 46.2163L40.5316 50.4798L39.1131 55.5862L36.8822 63.6175L34.0659 73.7567L31.0466 84.6235C30.6883 85.9077 30.3317 87.1918 29.9719 88.4744C29.8104 89.0534 29.6552 89.6387 29.409 90.1888C29.1803 90.7006 28.8876 91.1851 28.5566 91.6377C28.2575 92.0439 27.9265 92.4261 27.5698 92.7828C27.3923 92.9603 27.2068 93.1314 27.0181 93.2961C26.839 93.4497 26.6231 93.5824 26.4568 93.7471C25.8363 94.2125 25.1614 94.6011 24.4497 94.9097C23.8916 95.1512 23.3159 95.3543 22.7226 95.4887C22.0893 95.6326 21.44 95.6694 20.7923 95.6934C20.1286 95.719 19.4649 95.7477 18.8012 95.7813C18.379 95.8021 17.9553 95.8213 17.5331 95.8357C17.5251 95.8357 17.5171 95.8357 17.5091 95.8357C17.1061 95.8485 16.703 95.8581 16.3 95.8613H16.2984Z" fill="#1D6790"/>
<path id="Vector_7" d="M0.0807517 94.3147C0.103141 94.3899 0.203892 94.4011 0.245473 94.3355C0.789212 93.4703 3.43434 89.154 4.29313 85.7172C6.68239 76.3681 8.57748 66.7263 11.4737 57.5259C12.1278 55.4485 13.3576 53.6078 14.9824 52.1637C16.6072 50.7212 18.5599 49.6865 20.5989 48.9604C22.7067 48.2088 24.9232 47.7722 27.1494 47.5739C28.2321 47.478 29.3211 47.438 30.4086 47.4556C30.93 47.4636 31.4497 47.4859 31.9695 47.5211C32.2221 47.5387 32.4732 47.5595 32.7259 47.5835C33.0713 47.6171 33.3208 47.6843 33.6503 47.5515C34.0261 47.3996 34.4003 47.2381 34.7729 47.0782C35.5086 46.7615 36.241 46.4369 36.9655 46.0962C38.1169 45.5541 39.3147 44.9944 40.3335 44.2219C40.6069 44.014 41.1954 43.5982 41.0851 43.1792C41.0419 43.0129 40.8548 42.805 38.9949 42.5395C35.9739 42.1093 32.905 42.2101 29.8793 42.5395C28.2816 42.7138 27.4836 42.8002 26.361 43.0193C25.3087 43.224 22.8091 43.7246 20.2263 44.8872C20.1207 44.9352 19.8905 45.0391 19.633 45.1639C18.3216 45.7988 15.5453 47.1741 12.9274 50.0559C12.9274 50.0559 10.2535 53.0001 8.92931 56.6128C8.50871 57.761 8.12969 59.1716 8.12969 59.1716C7.92179 59.9472 7.79385 60.5325 7.74907 60.7404C7.12697 63.587 6.38013 66.4065 5.73084 69.2467C5.11034 71.959 4.62897 73.9773 3.81176 77.4028C3.23444 79.8209 2.74667 81.8327 2.39804 83.2592L0.666072 90.5501L0.223081 92.3157L0.114334 92.7107C0.114334 92.7107 -0.117555 93.6494 0.0791509 94.3163L0.0807517 94.3147Z" fill="#9FF4F3"/>
</g>
<path id="Vector_8" d="M39.4759 64.6073C39.7349 64.5882 40.074 64.5258 40.4306 64.3499C41.4685 63.8429 41.8187 62.7922 41.8955 62.5427L44.9133 50.3742C44.9133 50.3742 46.2566 44.3946 45.6649 42.9873C45.6649 42.9873 44.539 43.9101 44.1664 45.303L42.9462 49.8656L41.9179 53.7485L40.6129 58.679C40.2867 59.9088 39.962 61.1386 39.6358 62.3684C39.5718 62.6035 39.5142 62.8706 39.4759 63.168C39.4055 63.7278 39.4279 64.2187 39.4759 64.6073Z" fill="#81E0FD"/>
<path id="Vector_9" d="M39.5578 64.6473C39.6554 64.4362 39.9033 64.3099 40.2647 64.0892C40.9795 63.6494 41.7232 63.2592 42.486 62.9106C44.8241 61.8423 47.3733 61.1706 49.9512 61.1498C51.8319 61.1338 53.6359 61.5288 55.5214 61.3449C57.079 61.193 58.6207 60.8795 60.1144 60.4142C65.3726 58.7717 69.8201 55.1127 72.3437 50.2158C74.0181 46.9662 76.7768 44.0428 80.1783 42.6019C80.5462 42.4452 80.9652 42.6658 81.0531 43.0561C81.0787 43.168 81.0931 43.2895 81.0851 43.4159C81.0851 43.4159 81.1347 44.1691 80.8548 45.1127L80.3575 46.8446L79.7258 48.938L78.8734 51.6727L78.0865 54.0876L77.578 55.4837C77.5732 55.4949 77.57 55.5061 77.5652 55.5173L77.063 56.6927C77.0566 56.7087 77.0486 56.7231 77.0407 56.7391L76.5593 57.6539C76.5513 57.6683 76.5433 57.6827 76.5337 57.697L75.9404 58.6374C75.934 58.647 75.9276 58.6566 75.9212 58.6662L75.2175 59.6625C75.2111 59.6721 75.2031 59.6817 75.1951 59.6913L74.5362 60.5181C74.5283 60.5277 74.5219 60.5357 74.5139 60.5453L73.8102 61.3337C73.8022 61.3417 73.7942 61.3513 73.7862 61.3593L73.1145 62.0358L72.5164 62.5827L71.9503 63.0577L71.1155 63.6894C71.1059 63.6958 71.0963 63.7038 71.0867 63.7102L70.4118 64.1659L69.6986 64.5977C69.6874 64.6041 69.6778 64.6105 69.6666 64.6153L68.731 65.1111C68.7198 65.1175 68.7086 65.1223 68.6974 65.1271L67.8962 65.4933C67.885 65.4981 67.8738 65.5029 67.8626 65.5077L66.9223 65.8739L66.4153 66.045L65.5821 66.2881C65.5709 66.2913 65.5598 66.2945 65.5486 66.2961L64.6274 66.5136L63.9445 66.6416L63.0378 66.7679L62.3485 66.8319C62.3309 66.8335 62.3133 66.8351 62.2957 66.8351L61.3522 66.8447H59.7833L57.2661 66.8079L54.7761 66.7887L41.7504 66.6911C41.6688 66.6895 41.5441 66.6863 41.3921 66.6847C41.2114 66.6847 41.1091 66.6847 41.0723 66.6847C40.7077 66.6815 40.3446 66.4177 40.2727 66.3649C39.8761 66.0674 39.7321 65.674 39.633 65.4054C39.497 65.0359 39.4779 64.8136 39.5546 64.6457L39.5578 64.6473Z" fill="#148ED1"/>
</g>
<defs>
<linearGradient id="paint0_linear_14179_3710" x1="39.4458" y1="54.2126" x2="81.0947" y2="54.2126" gradientUnits="userSpaceOnUse">
<stop stop-color="#5DC9ED"/>
<stop offset="0.21" stop-color="#4BBBE5"/>
<stop offset="0.73" stop-color="#249BD6"/>
<stop offset="1" stop-color="#1690D0"/>
</linearGradient>
<linearGradient id="paint1_linear_14179_3710" x1="15.8218" y1="20.4686" x2="90.0214" y2="20.4686" gradientUnits="userSpaceOnUse">
<stop stop-color="#98EA96"/>
<stop offset="0.3" stop-color="#6BD08A"/>
<stop offset="0.6" stop-color="#44B980"/>
<stop offset="0.85" stop-color="#2BAC7A"/>
<stop offset="1" stop-color="#23A778"/>
</linearGradient>
<linearGradient id="paint2_linear_14179_3710" x1="0.0168769" y1="69.2196" x2="41.9184" y2="69.2196" gradientUnits="userSpaceOnUse">
<stop stop-color="#81E9F2"/>
<stop offset="0.17" stop-color="#6BD6E3"/>
<stop offset="0.54" stop-color="#44B5C9"/>
<stop offset="0.82" stop-color="#2BA1B9"/>
<stop offset="1" stop-color="#239AB4"/>
</linearGradient>
</defs>
</svg>
