<svg width="40" height="40" viewBox="0 0 40 40" fill="none" xmlns="http://www.w3.org/2000/svg">
<g id="Frame">
<g id="Group">
<path id="Vector" d="M29.9956 2.22217H14.8934C13.0529 2.22217 11.5556 3.7195 11.5556 5.55995V20.1599L5.2187 23.8693C5.01425 23.9888 4.88892 24.2075 4.88892 24.4444V31.0955C4.8879 31.6243 5.03252 32.1432 5.30691 32.5952C5.58131 33.0473 5.97488 33.415 6.44448 33.6582L14.6431 37.9244C14.7387 37.9741 14.8448 37.9999 14.9525 37.9996C15.0601 37.9993 15.1661 37.9729 15.2614 37.9226L16.38 37.3333H29.9956C31.836 37.3333 33.3334 35.8359 33.3334 33.9955V5.55995C33.3334 3.7195 31.836 2.22217 29.9956 2.22217ZM26.3045 3.5555L25.7711 4.88883H19.5627L19.0294 3.5555H26.3045ZM15.5556 36.2608V30.9839L18.6667 29.3435V31.4675C18.6667 31.5824 18.6963 31.6953 18.7528 31.7954C18.8093 31.8954 18.8907 31.9792 18.989 32.0385C19.0874 32.0979 19.1994 32.1308 19.3143 32.1341C19.4291 32.1373 19.5429 32.1109 19.6445 32.0573L21.8667 30.8844C22.0854 30.7688 22.2223 30.5417 22.2223 30.2946V27.4688L23.5556 26.7657V31.1039C23.5559 31.3872 23.4788 31.6651 23.3325 31.9076C23.1862 32.1501 22.9764 32.3481 22.7258 32.4799L15.5556 36.2608ZM20 28.6404L20.8889 28.1715V29.8924L20 30.3613V28.6404ZM19.1338 27.5902L10.1071 22.5524L11.0271 22.0137L20.1027 27.0791L19.1338 27.5902ZM23.5556 25.2586L21.5094 26.3373L12.3627 21.2319L14.6747 19.8786L23.5556 24.8359V25.2586ZM8.77203 23.3342L17.7267 28.3324L14.7196 29.9182L6.22225 25.6986V24.8266L8.77203 23.3342ZM6.22225 31.0955V27.1871L14.2223 31.1595V36.2026L7.06003 32.4755C6.80717 32.3445 6.59523 32.1465 6.44746 31.9031C6.29968 31.6597 6.22177 31.3803 6.22225 31.0955ZM32 33.9955C31.9994 34.5269 31.7881 35.0364 31.4123 35.4122C31.0365 35.788 30.527 35.9994 29.9956 35.9999H18.9085L23.3476 33.6591C23.8132 33.4144 24.203 33.0469 24.4747 32.5965C24.7464 32.1461 24.8897 31.63 24.8889 31.1039V24.4444C24.8889 24.3257 24.8573 24.2092 24.7972 24.1068C24.7371 24.0045 24.6508 23.92 24.5471 23.8622L14.9916 18.5288C14.8903 18.4722 14.7759 18.443 14.6598 18.4442C14.5437 18.4454 14.43 18.4768 14.3298 18.5355L12.8889 19.3791V5.55995C12.8895 5.02851 13.1009 4.51902 13.4767 4.14324C13.8524 3.76746 14.3619 3.55609 14.8934 3.5555H17.596C17.5991 3.56395 17.6 3.57239 17.6031 3.58083L18.492 5.80306C18.5934 6.05595 18.8387 6.22217 19.1111 6.22217H26.2223C26.4947 6.22217 26.74 6.05595 26.8414 5.80306L27.7303 3.58083C27.7334 3.57239 27.7343 3.56395 27.7374 3.5555H29.9956C30.527 3.55609 31.0365 3.76746 31.4123 4.14324C31.7881 4.51902 31.9994 5.02851 32 5.55995V33.9955Z" fill="#FEFEFE"/>
<path id="Vector_2" d="M19.0841 8.63944L17.1112 10.6128L16.4716 9.97322C16.4101 9.90955 16.3366 9.85876 16.2552 9.82382C16.1739 9.78888 16.0864 9.77049 15.9979 9.76972C15.9094 9.76895 15.8216 9.78582 15.7397 9.81934C15.6577 9.85286 15.5833 9.90236 15.5207 9.96496C15.4581 10.0276 15.4086 10.102 15.3751 10.1839C15.3416 10.2658 15.3247 10.3536 15.3255 10.4422C15.3262 10.5307 15.3446 10.6182 15.3796 10.6995C15.4145 10.7808 15.4653 10.8544 15.529 10.9159L16.6401 12.027C16.7703 12.1572 16.941 12.2221 17.1116 12.2221C17.2823 12.2221 17.453 12.1572 17.5832 12.027L20.0276 9.58255C20.1526 9.45754 20.2228 9.288 20.2228 9.11122C20.2228 8.93444 20.1526 8.76491 20.0276 8.63989C19.9025 8.5149 19.7328 8.44466 19.5559 8.44458C19.3791 8.4445 19.2094 8.51457 19.0841 8.63944ZM22.0001 10.2221H25.1112C25.288 10.2221 25.4576 10.1519 25.5826 10.0268C25.7076 9.90182 25.7779 9.73225 25.7779 9.55544C25.7779 9.37863 25.7076 9.20906 25.5826 9.08404C25.4576 8.95901 25.288 8.88878 25.1112 8.88878H22.0001C21.8233 8.88878 21.6537 8.95901 21.5287 9.08404C21.4036 9.20906 21.3334 9.37863 21.3334 9.55544C21.3334 9.73225 21.4036 9.90182 21.5287 10.0268C21.6537 10.1519 21.8233 10.2221 22.0001 10.2221ZM27.3334 11.111H22.0001C21.8233 11.111 21.6537 11.1812 21.5287 11.3063C21.4036 11.4313 21.3334 11.6009 21.3334 11.7777C21.3334 11.9545 21.4036 12.124 21.5287 12.2491C21.6537 12.3741 21.8233 12.4443 22.0001 12.4443H27.3334C27.5102 12.4443 27.6798 12.3741 27.8048 12.2491C27.9298 12.124 28.0001 11.9545 28.0001 11.7777C28.0001 11.6009 27.9298 11.4313 27.8048 11.3063C27.6798 11.1812 27.5102 11.111 27.3334 11.111ZM19.0841 14.6394L17.1112 16.6128L16.4716 15.9732C16.4101 15.9095 16.3366 15.8588 16.2552 15.8238C16.1739 15.7889 16.0864 15.7705 15.9979 15.7697C15.9094 15.769 15.8216 15.7858 15.7397 15.8193C15.6577 15.8529 15.5833 15.9024 15.5207 15.965C15.4581 16.0276 15.4086 16.102 15.3751 16.1839C15.3416 16.2658 15.3247 16.3536 15.3255 16.4422C15.3262 16.5307 15.3446 16.6182 15.3796 16.6995C15.4145 16.7808 15.4653 16.8544 15.529 16.9159L16.6401 18.027C16.7699 18.1572 16.9405 18.2221 17.1112 18.2221C17.2819 18.2221 17.4525 18.1572 17.5827 18.027L20.0272 15.5826C20.1469 15.4564 20.2126 15.2885 20.2103 15.1146C20.208 14.9408 20.1379 14.7746 20.0149 14.6517C19.892 14.5287 19.7259 14.4586 19.552 14.4564C19.3781 14.4541 19.2102 14.5198 19.0841 14.6394ZM22.0001 16.4443H25.1112C25.288 16.4443 25.4576 16.3741 25.5826 16.2491C25.7076 16.124 25.7779 15.9545 25.7779 15.7777C25.7779 15.6009 25.7076 15.4313 25.5826 15.3063C25.4576 15.1812 25.288 15.111 25.1112 15.111H22.0001C21.8233 15.111 21.6537 15.1812 21.5287 15.3063C21.4036 15.4313 21.3334 15.6009 21.3334 15.7777C21.3334 15.9545 21.4036 16.124 21.5287 16.2491C21.6537 16.3741 21.8233 16.4443 22.0001 16.4443ZM27.3334 17.3332H22.0001C21.8233 17.3332 21.6537 17.4035 21.5287 17.5285C21.4036 17.6535 21.3334 17.8231 21.3334 17.9999C21.3334 18.1767 21.4036 18.3463 21.5287 18.4713C21.6537 18.5963 21.8233 18.6666 22.0001 18.6666H27.3334C27.5102 18.6666 27.6798 18.5963 27.8048 18.4713C27.9298 18.3463 28.0001 18.1767 28.0001 17.9999C28.0001 17.8231 27.9298 17.6535 27.8048 17.5285C27.6798 17.4035 27.5102 17.3332 27.3334 17.3332Z" fill="#FEFEFE"/>
</g>
</g>
</svg>
