<svg width="30" height="30" viewBox="0 0 30 30" fill="none" xmlns="http://www.w3.org/2000/svg">
<g id="Frame" clip-path="url(#clip0_14533_3144)">
<g id="Group">
<path id="Vector" d="M29.701 14.265L26.7345 11.2985C26.6404 11.2034 26.5283 11.128 26.4048 11.0767C26.2813 11.0253 26.1488 10.9991 26.015 10.9995H23V4.4995C23 3.121 21.8785 1.9995 20.5 1.9995H15.861C15.6875 1.702 15.3685 1.4995 15 1.4995H13.791C13.4015 0.6 12.5085 0 11.5 0C10.4915 0 9.5985 0.6 9.209 1.5H8C7.6315 1.5 7.3125 1.7025 7.139 2H2.5C1.1215 2 0 3.1215 0 4.5V26.5C0 27.8785 1.1215 29 2.5 29H12.092C12.1948 29.2916 12.3853 29.5443 12.6374 29.7233C12.8895 29.9024 13.1908 29.999 13.5 30H28.5C29.327 30 30 29.327 30 28.5V14.98H29.99C29.9913 14.8477 29.9665 14.7165 29.917 14.5938C29.8675 14.4711 29.7937 14.3594 29.701 14.265ZM26.0265 12.0045L28.994 14.972L28.9825 15L23.8435 14.991L22.723 12.003L26.0265 12.0045ZM12.2985 14.265C12.2057 14.3593 12.1324 14.471 12.0829 14.5937C12.0334 14.7164 12.0086 14.8477 12.01 14.98H12V26H3V5H7.39C7.6645 5.3045 8.0585 5.5 8.5 5.5H14.5C14.9415 5.5 15.335 5.3045 15.61 5H20V11H15.985C15.7125 11 15.457 11.106 15.266 11.298L12.2985 14.265ZM21.654 12.0025L22.774 14.989L19.228 14.983L20.346 12.002H21.6545L21.654 12.0025ZM15.9845 12.0005L19.2775 12.002L18.16 14.9815L13.0055 14.9725L15.9845 12.0005ZM18.9995 16.0005H22.9995V19.0005H18.9995V16.0005ZM21.9995 4.5005V11.0005H20.9995V5.0005C20.9995 4.449 20.551 4.0005 19.9995 4.0005H15.9995V3.0005H20.4995C21.3265 3.0005 21.9995 3.6735 21.9995 4.5005ZM7.9995 2.5005H9.5645C9.793 2.5005 9.9925 2.345 10.049 2.124C10.2175 1.4625 10.814 1.0005 11.4995 1.0005C12.185 1.0005 12.7815 1.4625 12.95 2.124C12.9774 2.23167 13.04 2.32713 13.1277 2.39531C13.2154 2.46349 13.3234 2.5005 13.4345 2.5005L14.9995 2.502V4.0005C14.9995 4.13311 14.9468 4.26029 14.8531 4.35405C14.7593 4.44782 14.6321 4.5005 14.4995 4.5005H8.4995C8.36689 4.5005 8.23971 4.44782 8.14595 4.35405C8.05218 4.26029 7.9995 4.13311 7.9995 4.0005V2.5005ZM1 26.5V4.5C1 3.673 1.673 3 2.5 3H7V4H3C2.4485 4 2 4.4485 2 5V26C2 26.5515 2.4485 27 3 27H12V28H2.5C1.673 28 1 27.327 1 26.5ZM28.5 29H13.5C13.3674 29 13.2402 28.9473 13.1464 28.8536C13.0527 28.7598 13 28.6326 13 28.5V15.9975C13.006 15.9975 13.0115 16 13.0175 16H18V19C18 19.5515 18.4485 20 19 20H23C23.5515 20 24 19.5515 24 19V16H28.9825C28.9885 16 28.994 15.9975 29 15.9975V28.5C29 28.6326 28.9473 28.7598 28.8536 28.8536C28.7598 28.9473 28.6326 29 28.5 29Z" fill="#757575"/>
<path id="Vector_2" d="M17.5 24.5001H15C14.4485 24.5001 14 24.9486 14 25.5001V27.0001C14 27.5516 14.4485 28.0001 15 28.0001H17.5C18.0515 28.0001 18.5 27.5516 18.5 27.0001V25.5001C18.5 24.9486 18.0515 24.5001 17.5 24.5001ZM15 27.0001V25.5001H17.5L17.501 27.0001H15ZM24.3535 24.6466C24.3071 24.6001 24.252 24.5632 24.1913 24.5381C24.1307 24.5129 24.0657 24.5 24 24.5C23.9343 24.5 23.8693 24.5129 23.8087 24.5381C23.748 24.5632 23.6929 24.6001 23.6465 24.6466L23.1465 25.1466C23.0763 25.2164 23.0285 25.3055 23.0091 25.4026C22.9897 25.4996 22.9995 25.6003 23.0374 25.6917C23.0753 25.7832 23.1395 25.8613 23.2218 25.9162C23.3042 25.9711 23.401 26.0003 23.5 26.0001V27.5001C23.5 27.6327 23.5527 27.7599 23.6464 27.8536C23.7402 27.9474 23.8674 28.0001 24 28.0001C24.1326 28.0001 24.2598 27.9474 24.3536 27.8536C24.4473 27.7599 24.5 27.6327 24.5 27.5001V26.0001C24.599 26.0003 24.6958 25.9711 24.7782 25.9162C24.8605 25.8613 24.9247 25.7832 24.9626 25.6917C25.0005 25.6003 25.0103 25.4996 24.9909 25.4026C24.9715 25.3055 24.9237 25.2164 24.8535 25.1466L24.3535 24.6466ZM27.3535 24.6466C27.3071 24.6001 27.252 24.5632 27.1913 24.5381C27.1307 24.5129 27.0657 24.5 27 24.5C26.9343 24.5 26.8693 24.5129 26.8087 24.5381C26.748 24.5632 26.6929 24.6001 26.6465 24.6466L26.1465 25.1466C26.0764 25.2164 26.0285 25.3055 26.0091 25.4026C25.9897 25.4996 25.9995 25.6003 26.0374 25.6917C26.0753 25.7832 26.1395 25.8613 26.2218 25.9162C26.3042 25.9711 26.401 26.0003 26.5 26.0001V27.5001C26.5 27.6327 26.5527 27.7599 26.6464 27.8536C26.7402 27.9474 26.8674 28.0001 27 28.0001C27.1326 28.0001 27.2598 27.9474 27.3536 27.8536C27.4473 27.7599 27.5 27.6327 27.5 27.5001V26.0001C27.599 26.0003 27.6958 25.9711 27.7782 25.9162C27.8605 25.8613 27.9247 25.7832 27.9626 25.6917C28.0005 25.6003 28.0103 25.4996 27.9909 25.4026C27.9715 25.3055 27.9237 25.2164 27.8535 25.1466L27.3535 24.6466ZM8.584 7.72257L6.9225 10.2151L6.3535 9.64607C6.30708 9.59965 6.25197 9.56283 6.19131 9.5377C6.13066 9.51258 6.06565 9.49965 6 9.49965C5.93435 9.49965 5.86934 9.51258 5.80869 9.5377C5.74803 9.56283 5.69292 9.59965 5.6465 9.64607C5.60008 9.6925 5.56325 9.74761 5.53813 9.80826C5.51301 9.86892 5.50007 9.93392 5.50007 9.99957C5.50007 10.0652 5.51301 10.1302 5.53813 10.1909C5.56325 10.2515 5.60008 10.3067 5.6465 10.3531L6.6465 11.3531C6.69879 11.4054 6.76204 11.4454 6.83168 11.4703C6.90132 11.4953 6.97563 11.5044 7.04923 11.4971C7.12284 11.4899 7.19391 11.4664 7.25733 11.4283C7.32076 11.3902 7.37495 11.3386 7.416 11.2771L9.416 8.27707C9.4896 8.16674 9.51635 8.0317 9.49038 7.90164C9.4644 7.77158 9.38783 7.65717 9.2775 7.58357C9.22287 7.54713 9.1616 7.52181 9.09718 7.50905C9.03276 7.49628 8.96646 7.49633 8.90206 7.5092C8.77201 7.53517 8.6576 7.61224 8.584 7.72257ZM8.584 13.7226L6.9225 16.2151L6.3535 15.6461C6.30708 15.5997 6.25197 15.5628 6.19131 15.5377C6.13066 15.5126 6.06565 15.4996 6 15.4996C5.93435 15.4996 5.86934 15.5126 5.80869 15.5377C5.74803 15.5628 5.69292 15.5997 5.6465 15.6461C5.60008 15.6925 5.56325 15.7476 5.53813 15.8083C5.51301 15.8689 5.50007 15.9339 5.50007 15.9996C5.50007 16.0652 5.51301 16.1302 5.53813 16.1909C5.56325 16.2515 5.60008 16.3067 5.6465 16.3531L6.6465 17.3531C6.69879 17.4054 6.76204 17.4454 6.83168 17.4703C6.90132 17.4953 6.97563 17.5044 7.04923 17.4971C7.12284 17.4899 7.19391 17.4664 7.25733 17.4283C7.32076 17.3902 7.37495 17.3386 7.416 17.2771L9.416 14.2771C9.45244 14.2224 9.47777 14.1612 9.49053 14.0968C9.50329 14.0323 9.50324 13.966 9.49038 13.9016C9.47752 13.8372 9.4521 13.776 9.41557 13.7214C9.37905 13.6669 9.33213 13.62 9.2775 13.5836C9.22287 13.5471 9.1616 13.5218 9.09718 13.509C9.03276 13.4963 8.96646 13.4963 8.90206 13.5092C8.83767 13.5221 8.77643 13.5475 8.72186 13.584C8.66729 13.6205 8.62044 13.6679 8.584 13.7226ZM8.584 19.7226L6.9225 22.2151L6.3535 21.6461C6.25975 21.5523 6.13259 21.4996 6 21.4996C5.86741 21.4996 5.74025 21.5523 5.6465 21.6461C5.55275 21.7398 5.50007 21.867 5.50007 21.9996C5.50007 22.1322 5.55275 22.2593 5.6465 22.3531L6.6465 23.3531C6.69879 23.4054 6.76204 23.4454 6.83168 23.4703C6.90132 23.4953 6.97563 23.5044 7.04923 23.4971C7.12284 23.4899 7.19391 23.4664 7.25733 23.4283C7.32076 23.3902 7.37495 23.3386 7.416 23.2771L9.416 20.2771C9.45244 20.2224 9.47777 20.1612 9.49053 20.0968C9.50329 20.0323 9.50324 19.966 9.49038 19.9016C9.47752 19.8372 9.4521 19.776 9.41557 19.7214C9.37905 19.6669 9.33213 19.62 9.2775 19.5836C9.22287 19.5471 9.1616 19.5218 9.09718 19.509C9.03276 19.4963 8.96646 19.4963 8.90206 19.5092C8.83767 19.5221 8.77643 19.5475 8.72186 19.584C8.66729 19.6205 8.62044 19.6679 8.584 19.7226Z" fill="#757575"/>
</g>
</g>
<defs>
<clipPath id="clip0_14533_3144">
<rect width="30" height="30" fill="white"/>
</clipPath>
</defs>
</svg>
