<svg width="24" height="25" viewBox="0 0 24 25" fill="none" xmlns="http://www.w3.org/2000/svg">
<g id="Frame" clip-path="url(#clip0_14014_6665)">
<g id="Group">
<path id="Vector" d="M18 24.6892C17.9 24.6892 17.8 24.6692 17.706 24.6292C17.474 24.5302 12 22.1462 12 17.2432V13.2252C12 13.0685 12.0492 12.9158 12.1405 12.7885C12.2317 12.6611 12.3606 12.5656 12.509 12.5152L17.759 10.7292C17.9153 10.6762 18.0847 10.6762 18.241 10.7292L23.491 12.5152C23.6394 12.5656 23.7683 12.6611 23.8595 12.7885C23.9508 12.9158 24 13.0685 24 13.2252V17.2432C24 22.1462 18.526 24.5302 18.294 24.6302C18.2008 24.669 18.1009 24.6891 18 24.6892ZM13.5 13.7622V17.2422C13.5 20.5752 16.956 22.5792 18 23.1072C19.044 22.5792 22.5 20.5752 22.5 17.2422V13.7622L18 12.2312L13.5 13.7622Z" fill="#757575"/>
<path id="Vector_2" d="M17.75 20.1895C17.6515 20.1897 17.5539 20.1704 17.4629 20.1326C17.372 20.0948 17.2894 20.0394 17.22 19.9695L15.22 17.9695C15.1503 17.8998 15.0951 17.8171 15.0574 17.7261C15.0197 17.635 15.0003 17.5375 15.0003 17.439C15.0003 17.3404 15.0197 17.2429 15.0574 17.1518C15.0951 17.0608 15.1503 16.9781 15.22 16.9085C15.2897 16.8388 15.3724 16.7835 15.4634 16.7458C15.5544 16.7081 15.652 16.6887 15.7505 16.6887C15.849 16.6887 15.9466 16.7081 16.0376 16.7458C16.1286 16.7835 16.2113 16.8388 16.281 16.9085L17.67 18.2975L20.15 14.9895C20.2085 14.9089 20.2824 14.8408 20.3675 14.7892C20.4525 14.7375 20.547 14.7033 20.6454 14.6885C20.7438 14.6737 20.8442 14.6787 20.9407 14.7031C21.0372 14.7275 21.1278 14.7708 21.2074 14.8306C21.287 14.8904 21.3538 14.9654 21.4041 15.0513C21.4544 15.1372 21.4871 15.2322 21.5002 15.3309C21.5134 15.4295 21.5068 15.5298 21.4809 15.6259C21.4549 15.7219 21.4101 15.8119 21.349 15.8905L18.349 19.8905C18.2845 19.9764 18.2023 20.0475 18.1079 20.0989C18.0135 20.1503 17.9092 20.1809 17.802 20.1885L17.75 20.1895ZM10.59 21.6895H2.75C2.02082 21.6889 1.32165 21.399 0.806042 20.8834C0.290431 20.3678 0.000529737 19.6686 0 18.9395L0 3.43945C0.000529737 2.71027 0.290431 2.0111 0.806042 1.49549C1.32165 0.979884 2.02082 0.689983 2.75 0.689453L14.25 0.689453C14.9792 0.689983 15.6783 0.979884 16.194 1.49549C16.7096 2.0111 16.9995 2.71027 17 3.43945V8.86945C17 9.06837 16.921 9.25913 16.7803 9.39978C16.6397 9.54044 16.4489 9.61945 16.25 9.61945C16.0511 9.61945 15.8603 9.54044 15.7197 9.39978C15.579 9.25913 15.5 9.06837 15.5 8.86945V3.43945C15.5 2.75045 14.939 2.18945 14.25 2.18945H2.75C2.061 2.18945 1.5 2.75045 1.5 3.43945V18.9395C1.5 19.6285 2.061 20.1895 2.75 20.1895H10.59C10.7889 20.1895 10.9797 20.2685 11.1203 20.4091C11.261 20.5498 11.34 20.7405 11.34 20.9395C11.34 21.1384 11.261 21.3291 11.1203 21.4698C10.9797 21.6104 10.7889 21.6895 10.59 21.6895Z" fill="#757575"/>
<path id="Vector_3" d="M13.25 10.1895H3.75C3.55109 10.1895 3.36032 10.1104 3.21967 9.96978C3.07902 9.82913 3 9.63837 3 9.43945C3 9.24054 3.07902 9.04978 3.21967 8.90912C3.36032 8.76847 3.55109 8.68945 3.75 8.68945H13.25C13.4489 8.68945 13.6397 8.76847 13.7803 8.90912C13.921 9.04978 14 9.24054 14 9.43945C14 9.63837 13.921 9.82913 13.7803 9.96978C13.6397 10.1104 13.4489 10.1895 13.25 10.1895ZM9.25 14.1895H3.75C3.55109 14.1895 3.36032 14.1104 3.21967 13.9698C3.07902 13.8291 3 13.6384 3 13.4395C3 13.2405 3.07902 13.0498 3.21967 12.9091C3.36032 12.7685 3.55109 12.6895 3.75 12.6895H9.25C9.44891 12.6895 9.63968 12.7685 9.78033 12.9091C9.92098 13.0498 10 13.2405 10 13.4395C10 13.6384 9.92098 13.8291 9.78033 13.9698C9.63968 14.1104 9.44891 14.1895 9.25 14.1895ZM8.25 6.18945H3.75C3.55109 6.18945 3.36032 6.11044 3.21967 5.96978C3.07902 5.82913 3 5.63837 3 5.43945C3 5.24054 3.07902 5.04978 3.21967 4.90912C3.36032 4.76847 3.55109 4.68945 3.75 4.68945H8.25C8.44891 4.68945 8.63968 4.76847 8.78033 4.90912C8.92098 5.04978 9 5.24054 9 5.43945C9 5.63837 8.92098 5.82913 8.78033 5.96978C8.63968 6.11044 8.44891 6.18945 8.25 6.18945Z" fill="#757575"/>
</g>
</g>
<defs>
<clipPath id="clip0_14014_6665">
<rect width="24" height="24" fill="white" transform="translate(0 0.689453)"/>
</clipPath>
</defs>
</svg>
