<svg width="24" height="25" viewBox="0 0 24 25" fill="none" xmlns="http://www.w3.org/2000/svg">
<g id="Frame">
<g id="Group">
<path id="Vector" d="M11.9843 19.899C12.0423 19.8991 12.0996 19.8856 12.1515 19.8597L18.138 16.8664C18.2001 16.8353 18.2523 16.7876 18.2888 16.7285C18.3253 16.6694 18.3446 16.6014 18.3447 16.5319V12.9702C18.3416 12.873 18.3008 12.7809 18.231 12.7132C18.1612 12.6456 18.0678 12.6078 17.9706 12.6078C17.8734 12.6078 17.78 12.6456 17.7102 12.7132C17.6404 12.7809 17.5996 12.873 17.5965 12.9702V16.3005L12.3585 18.9195V12.9454L13.2162 13.803C13.2717 13.8587 13.3433 13.8954 13.4208 13.908C13.4983 13.9207 13.5779 13.9086 13.6482 13.8735L19.6347 10.8803C19.6877 10.8538 19.7337 10.8151 19.7689 10.7673C19.804 10.7196 19.8273 10.6641 19.8368 10.6056C19.8463 10.547 19.8417 10.4871 19.8235 10.4306C19.8052 10.3742 19.7738 10.3229 19.7318 10.281L18.2355 8.78442C18.2063 8.75682 18.1735 8.73324 18.138 8.7143L12.1515 5.72105C12.0996 5.69513 12.0423 5.68164 11.9843 5.68164C11.9262 5.68164 11.869 5.69513 11.817 5.72105L5.83055 8.7143C5.79509 8.73326 5.76231 8.75684 5.73304 8.78442L4.23679 10.2807C4.19474 10.3226 4.16327 10.3739 4.14499 10.4304C4.12671 10.4869 4.12215 10.5469 4.13168 10.6055C4.14121 10.6641 4.16455 10.7196 4.19979 10.7674C4.23502 10.8152 4.28113 10.8539 4.33429 10.8803L10.3204 13.8735C10.3907 13.9085 10.4701 13.9206 10.5476 13.9079C10.6251 13.8953 10.6966 13.8586 10.752 13.803L11.61 12.9454V18.9192L6.37205 16.3002V12.9698C6.36897 12.8726 6.32821 12.7805 6.2584 12.7129C6.18858 12.6452 6.09519 12.6074 5.99798 12.6074C5.90078 12.6074 5.80738 12.6452 5.73757 12.7129C5.66775 12.7805 5.627 12.8726 5.62392 12.9698V16.5315C5.62394 16.601 5.64328 16.669 5.67977 16.7281C5.71626 16.7872 5.76846 16.8349 5.83055 16.866L11.817 19.8593C11.869 19.8852 11.9262 19.8987 11.9843 19.8987V19.899ZM18.8355 10.4427L13.5548 13.0834L12.6158 12.1448L17.8969 9.50405L18.8355 10.4427ZM10.4138 13.0834L5.13304 10.4427L6.07167 9.50405L11.3528 12.1448L10.4138 13.0834ZM6.83479 9.0488L11.9843 6.47405L17.1338 9.04917L11.9843 11.6243L6.83479 9.0488Z" fill="#757575"/>
<path id="Vector_2" d="M19.9009 5.93328L20.4791 6.00453C20.5759 6.01333 20.6723 5.98413 20.748 5.92311C20.8236 5.86209 20.8726 5.77405 20.8844 5.67759C20.8963 5.58114 20.8702 5.48384 20.8117 5.40629C20.7531 5.32873 20.6667 5.277 20.5706 5.26203L19.1381 5.08578C19.0893 5.07929 19.0397 5.0826 18.9922 5.09552C18.9447 5.10843 18.9002 5.1307 18.8614 5.16101C18.8227 5.19132 18.7903 5.22907 18.7663 5.27205C18.7422 5.31502 18.727 5.36236 18.7215 5.41128L18.5453 6.84378C18.5367 6.94047 18.5661 7.0367 18.6271 7.11216C18.6882 7.18762 18.7761 7.23641 18.8725 7.24823C18.9688 7.26006 19.066 7.23399 19.1435 7.17553C19.2209 7.11707 19.2727 7.03079 19.2878 6.93491L19.3485 6.43878C24.7748 12.654 20.2451 22.5503 11.9843 22.5188C10.0835 22.5204 8.22408 21.9634 6.63714 20.9172C6.59612 20.8901 6.55018 20.8715 6.50194 20.8622C6.45371 20.853 6.40412 20.8533 6.35601 20.8632C6.30791 20.8731 6.26222 20.8924 6.22157 20.92C6.18092 20.9475 6.14609 20.9828 6.11908 21.0238C6.09207 21.0649 6.0734 21.1108 6.06414 21.159C6.05489 21.2073 6.05522 21.2569 6.06513 21.305C6.07503 21.3531 6.09432 21.3988 6.12188 21.4394C6.14944 21.4801 6.18474 21.5149 6.22577 21.5419C16.422 28.0624 27.6821 15.1714 19.9009 5.93328ZM5.03139 18.2922C4.98232 18.2873 4.93276 18.2923 4.88565 18.3068C4.83854 18.3214 4.79482 18.3452 4.75707 18.377C4.71932 18.4087 4.68831 18.4477 4.66587 18.4916C4.64343 18.5355 4.63 18.5835 4.62639 18.6327L4.58589 19.1037C-2.55373 10.5042 7.90577 -1.37059 17.3314 4.66466C17.4143 4.71677 17.5143 4.73433 17.61 4.71356C17.7057 4.69279 17.7894 4.63535 17.8432 4.55356C17.897 4.47177 17.9167 4.37214 17.8979 4.27605C17.8791 4.17995 17.8234 4.09504 17.7428 4.03953C16.0338 2.91258 14.0313 2.31272 11.9843 2.31453C3.15039 2.28078 -1.74823 12.8082 3.96264 19.5259L3.43239 19.452C3.33545 19.441 3.23803 19.4683 3.16091 19.528C3.08378 19.5878 3.03304 19.6753 3.0195 19.7719C3.00595 19.8686 3.03067 19.9666 3.0884 20.0453C3.14612 20.124 3.23228 20.177 3.32852 20.193L4.82927 20.4034C4.87954 20.4101 4.93065 20.4067 4.97954 20.3931C5.02843 20.3796 5.07408 20.3564 5.11376 20.3248C5.15344 20.2932 5.18633 20.2539 5.21045 20.2093C5.23458 20.1647 5.24944 20.1157 5.25414 20.0652L5.37189 18.6975C5.37616 18.6486 5.37074 18.5993 5.35593 18.5524C5.34113 18.5055 5.31723 18.4621 5.2856 18.4244C5.25398 18.3868 5.21525 18.3558 5.17163 18.3332C5.12801 18.3105 5.08035 18.2967 5.03139 18.2925V18.2922Z" fill="#757575"/>
</g>
</g>
</svg>
