<svg width="30" height="30" viewBox="0 0 30 30" fill="none" xmlns="http://www.w3.org/2000/svg">
<g id="Frame" clip-path="url(#clip0_14014_3275)">
<g id="Group">
<path id="Vector" d="M10.2231 4.34096C10.2821 4.44312 10.3775 4.51928 10.4901 4.55425C10.6028 4.58922 10.7245 4.58043 10.8309 4.52964C11.9215 4.00921 13.0931 3.69831 14.3131 3.60555C14.4309 3.5966 14.541 3.54347 14.6214 3.45681C14.7017 3.37014 14.7463 3.25632 14.7463 3.13815V0.937605C14.7463 0.873544 14.7332 0.810168 14.7077 0.751387C14.6822 0.692606 14.645 0.639667 14.5983 0.595836C14.5516 0.552006 14.4964 0.518214 14.4361 0.496545C14.3758 0.474877 14.3117 0.465792 14.2478 0.469851C12.5245 0.57989 10.8683 1.02344 9.32496 1.78821C9.26757 1.81667 9.21662 1.85659 9.17526 1.9055C9.13389 1.95441 9.10299 2.01127 9.08445 2.07259C9.06591 2.1339 9.06012 2.19837 9.06746 2.262C9.07479 2.32564 9.09509 2.3871 9.12709 2.44259L10.2231 4.34096ZM13.8088 1.44749V2.71223C12.7734 2.83218 11.7723 3.09778 10.8227 3.50448L10.1939 2.41528C11.343 1.9037 12.5551 1.57921 13.8088 1.44749ZM3.42744 19.2075C3.45584 19.265 3.49572 19.316 3.54463 19.3575C3.59353 19.3989 3.65042 19.4299 3.71177 19.4485C3.77312 19.4671 3.83764 19.4729 3.90133 19.4656C3.96501 19.4582 4.02652 19.4379 4.08205 19.4059L5.98939 18.3047C6.09154 18.2458 6.16771 18.1504 6.20269 18.0378C6.23767 17.9252 6.2289 17.8035 6.17812 17.697C5.65635 16.6028 5.34392 15.4323 5.24935 14.218C5.24019 14.1003 5.18698 13.9904 5.10035 13.9103C5.01371 13.8301 4.90003 13.7856 4.78201 13.7856H2.58082C2.51674 13.7857 2.45335 13.7988 2.39456 13.8243C2.33576 13.8498 2.28282 13.887 2.23898 13.9338C2.19515 13.9805 2.16136 14.0357 2.13971 14.096C2.11805 14.1563 2.10898 14.2204 2.11307 14.2844C2.22369 16.0093 2.66596 17.6656 3.42744 19.2075ZM4.35697 14.7231C4.47737 15.7502 4.74547 16.7546 5.15297 17.7051L4.05545 18.3387C3.54609 17.1903 3.22266 15.978 3.09082 14.7231H4.35697ZM2.58088 13.105H4.79068C4.90799 13.105 5.02104 13.061 5.1075 12.9817C5.19396 12.9024 5.24754 12.7936 5.25768 12.6767C5.3632 11.4595 5.67809 10.2901 6.19359 9.20102C6.24394 9.09462 6.25242 8.97317 6.21735 8.86081C6.18227 8.74844 6.10621 8.65338 6.00428 8.59452L4.08551 7.48675C4.03002 7.4547 3.96854 7.43437 3.90489 7.42702C3.84123 7.41966 3.77674 7.42544 3.7154 7.44399C3.65407 7.46254 3.59718 7.49347 3.54827 7.53486C3.49936 7.57626 3.45945 7.62725 3.43102 7.68467C2.66713 9.22739 2.22375 10.8832 2.11307 12.6062C2.10895 12.6702 2.11799 12.7343 2.13964 12.7946C2.16129 12.8549 2.19508 12.9102 2.23892 12.9569C2.28277 13.0037 2.33574 13.0409 2.39455 13.0664C2.45337 13.0919 2.51678 13.105 2.58088 13.105ZM4.05844 8.55362L5.16879 9.19469C4.76578 10.1405 4.49766 11.137 4.36898 12.1675H3.09088C3.22301 10.9141 3.54738 9.70235 4.05844 8.55362ZM29.1784 14.6685C29.0568 14.4179 28.808 14.2622 28.529 14.2621H28.0673C28.0842 13.9902 28.0927 13.717 28.0927 13.4453C28.0927 10.1178 26.8366 6.95214 24.556 4.53139C22.2854 2.12126 19.2203 0.678738 15.9254 0.469441C15.8615 0.465398 15.7974 0.474496 15.7371 0.496172C15.6768 0.517849 15.6217 0.551645 15.575 0.595474C15.5283 0.639304 15.491 0.692238 15.4656 0.75101C15.4401 0.809783 15.427 0.873147 15.427 0.937195V3.13833C15.427 3.25641 15.4715 3.37015 15.5518 3.45679C15.632 3.54344 15.742 3.59661 15.8597 3.60567C20.9619 3.9993 24.9587 8.32135 24.9587 13.4453C24.9587 13.7171 24.9475 13.9905 24.9252 14.262H24.6254C24.3466 14.262 24.0977 14.4177 23.9761 14.6683C23.8545 14.919 23.886 15.2107 24.0585 15.4298L26.0105 17.9091C26.0778 17.995 26.1639 18.0645 26.2621 18.1122C26.3604 18.1598 26.4682 18.1844 26.5774 18.1841C26.8 18.1841 27.0065 18.0838 27.1441 17.9089L29.096 15.4298C29.2684 15.2109 29.3 14.9191 29.1784 14.6685ZM26.5772 17.1136L25.0703 15.1997H25.3479C25.4623 15.1997 25.5726 15.1579 25.6583 15.0822C25.744 15.0066 25.799 14.9022 25.8131 14.7888C25.8684 14.3431 25.8961 13.8945 25.8962 13.4454C25.8962 10.7057 24.8692 8.09266 23.0045 6.08764C21.249 4.19999 18.9047 3.012 16.3644 2.71323V1.44708C22.4545 2.08733 27.1552 7.26362 27.1552 13.4454C27.1552 13.8582 27.1341 14.2747 27.0925 14.6833C27.0858 14.7486 27.0929 14.8145 27.1134 14.8768C27.1338 14.9391 27.167 14.9964 27.211 15.0451C27.2549 15.0937 27.3086 15.1326 27.3685 15.1593C27.4284 15.1859 27.4932 15.1997 27.5588 15.1997H28.0842L26.5772 17.1136ZM4.42676 6.89794L6.33891 8.0019C6.44137 8.06112 6.56245 8.07937 6.67782 8.05298C6.79319 8.02659 6.89429 7.95751 6.96082 7.85964C7.64672 6.85141 8.49949 5.99132 9.49535 5.30319C9.59223 5.23625 9.66036 5.1353 9.6862 5.02041C9.71204 4.90553 9.69369 4.78513 9.6348 4.68315L8.53834 2.78407C8.50625 2.72852 8.46311 2.68015 8.41158 2.64194C8.36005 2.60374 8.30123 2.57651 8.23875 2.56195C8.17628 2.54739 8.11148 2.5458 8.04837 2.55729C7.98526 2.56878 7.92517 2.5931 7.87183 2.62874C6.44016 3.5861 5.22879 4.79823 4.27125 6.23155C4.23564 6.28489 4.21135 6.34498 4.19988 6.40808C4.18842 6.47119 4.19002 6.53598 4.2046 6.59844C4.21917 6.6609 4.24641 6.71971 4.28462 6.77122C4.32284 6.82274 4.37121 6.86587 4.42676 6.89794ZM7.98199 3.69526L8.61123 4.78516C7.78494 5.40655 7.05644 6.14132 6.43816 6.97669L5.33771 6.34135C6.07594 5.32699 6.96813 4.43419 7.98199 3.69526ZM21.6206 19.5771L17.1012 22.2094C16.9293 22.3094 16.7551 22.3867 16.5756 22.4415C16.6322 22.3266 16.6773 22.2064 16.7101 22.0827C16.9505 21.1856 16.4184 20.2493 15.4988 19.9513C15.4787 19.9448 15.4582 19.9396 15.4375 19.9359C14.1442 19.7026 12.8652 19.2402 11.8375 18.8686C11.4791 18.7391 11.1406 18.6167 10.8521 18.5232C9.66978 18.1396 8.60725 18.6108 7.72377 19.1224L4.42066 21.0348L4.13736 20.5342C3.98853 20.2712 3.74549 20.0817 3.45305 20.0006C3.16066 19.9197 2.85475 19.957 2.59172 20.1057L1.32369 20.8234C0.779472 21.1314 0.587285 21.8248 0.895254 22.369L4.62316 28.956C4.77199 29.219 5.01504 29.4085 5.30748 29.4895C5.40861 29.5175 5.51133 29.5314 5.61334 29.5314C5.80629 29.5314 5.99678 29.4817 6.16881 29.3844L7.43684 28.6667C7.6998 28.5179 7.8893 28.2749 7.97039 27.9824C8.05142 27.69 8.0141 27.3841 7.86527 27.121L7.514 26.5004L8.19797 26.1054L13.9591 27.6491C14.2845 27.7363 14.6082 27.7797 14.9265 27.7797C15.5706 27.7797 16.1928 27.6024 16.7616 27.2522L24.9631 22.202C25.7406 21.7234 25.9885 20.5192 25.4832 19.6757C25.2387 19.2673 24.2372 18.0532 21.6206 19.5771ZM7.06699 27.7321C7.05879 27.7616 7.03594 27.8164 6.97512 27.8509L5.70709 28.5685C5.64633 28.6031 5.5875 28.5944 5.55791 28.5861C5.52832 28.5779 5.47353 28.5551 5.43908 28.4942L1.71123 21.9073C1.65873 21.8146 1.69271 21.6918 1.78553 21.6393L3.05361 20.9216C3.0825 20.9052 3.11518 20.8966 3.14842 20.8967C3.17068 20.8967 3.18961 20.9004 3.20279 20.9041C3.23238 20.9123 3.28717 20.9351 3.32156 20.9959L7.04947 27.5828C7.08381 27.6437 7.07519 27.7024 7.06699 27.7321ZM24.4716 21.4038L16.2702 26.4539C15.6363 26.8441 14.9404 26.9417 14.2018 26.7436L8.25305 25.1497C8.13297 25.1175 8.00505 25.1344 7.89738 25.1965L7.05223 25.6844L4.88244 21.8506L8.19346 19.9335C8.93355 19.505 9.73283 19.1455 10.5629 19.4148C10.8365 19.5036 11.1526 19.6178 11.5187 19.7502C12.5706 20.1305 13.8777 20.6031 15.2366 20.8521C15.6719 21.0067 15.9153 21.4266 15.8045 21.8399C15.6586 22.3844 15.2007 22.4521 14.8353 22.4105C14.1737 22.2743 13.5436 22.0945 12.877 21.9041C12.5593 21.8134 12.2309 21.7196 11.8929 21.629C11.7736 21.599 11.6472 21.6171 11.541 21.6795C11.4349 21.7418 11.3575 21.8434 11.3257 21.9623C11.2938 22.0813 11.31 22.2079 11.3707 22.315C11.4315 22.4221 11.5319 22.501 11.6503 22.5346C11.9808 22.6232 12.3056 22.7159 12.6196 22.8056C13.3106 23.003 14.6831 23.3362 14.6862 23.3367L15.2483 23.4282C16.1049 23.5651 16.8653 23.4315 17.573 23.0194L22.0923 20.3872C23.357 19.6506 24.324 19.5646 24.679 20.1574C24.9216 20.5622 24.8169 21.1912 24.4716 21.4038ZM3.38807 22.1348C3.39757 22.1941 3.39521 22.2546 3.38113 22.3129C3.36704 22.3712 3.3415 22.4261 3.306 22.4745C3.2705 22.5229 3.22574 22.5637 3.17433 22.5946C3.12292 22.6255 3.06588 22.6459 3.00652 22.6546C2.94716 22.6633 2.88667 22.66 2.82856 22.6451C2.77045 22.6302 2.71588 22.6039 2.66802 22.5678C2.62017 22.5316 2.57998 22.4863 2.54979 22.4344C2.5196 22.3826 2.50001 22.3253 2.49217 22.2658C2.47661 22.1478 2.50811 22.0285 2.57985 21.9336C2.6516 21.8387 2.75782 21.7758 2.87555 21.7586C2.99328 21.7414 3.11305 21.7712 3.20896 21.8416C3.30487 21.912 3.36921 22.0174 3.38807 22.1348ZM19.0729 9.0529C19.0729 7.18305 17.5516 5.66178 15.6817 5.66178C13.8119 5.66178 12.2906 7.18305 12.2906 9.0529C12.2906 10.1934 12.8571 11.2033 13.7229 11.8184C11.4468 12.5652 9.73664 14.5822 9.46898 17.0833C9.46196 17.1487 9.46878 17.2149 9.489 17.2775C9.50923 17.34 9.5424 17.3977 9.58636 17.4466C9.63032 17.4955 9.68408 17.5346 9.74416 17.5614C9.80423 17.5882 9.86927 17.602 9.93504 17.602H21.4283C21.494 17.602 21.5591 17.5882 21.6192 17.5614C21.6792 17.5346 21.733 17.4955 21.777 17.4466C21.8209 17.3976 21.8541 17.34 21.8743 17.2774C21.8945 17.2148 21.9013 17.1487 21.8943 17.0833C21.6266 14.5822 19.9165 12.5653 17.6405 11.8184C18.5063 11.2034 19.0729 10.1934 19.0729 9.0529ZM20.881 16.6645H10.4824C10.9876 14.2251 13.1368 12.4445 15.6805 12.444L15.6817 12.444H15.6829C18.2265 12.4446 20.3758 14.2251 20.881 16.6645ZM15.6817 11.5065H15.6802C14.328 11.5056 13.2281 10.4053 13.2281 9.0529C13.2281 7.69997 14.3288 6.59928 15.6817 6.59928C17.0347 6.59928 18.1354 7.69997 18.1354 9.0529C18.1354 10.4053 17.0355 11.5056 15.6833 11.5065H15.6817Z" fill="#757575"/>
</g>
</g>
<defs>
<clipPath id="clip0_14014_3275">
<rect width="30" height="30" fill="white"/>
</clipPath>
</defs>
</svg>
