<svg width="24" height="25" viewBox="0 0 24 25" fill="none" xmlns="http://www.w3.org/2000/svg">
<path fill-rule="evenodd" clip-rule="evenodd" d="M20.8066 8.47811L20.1842 7.39801C19.6576 6.48409 18.4907 6.16881 17.5755 6.69321V6.69321C17.1399 6.94984 16.6201 7.02264 16.1307 6.89558C15.6413 6.76851 15.2226 6.45201 14.9668 6.01586C14.8023 5.73864 14.7139 5.42289 14.7105 5.10053V5.10053C14.7254 4.58371 14.5304 4.08289 14.17 3.71216C13.8096 3.34143 13.3145 3.13236 12.7975 3.13257H11.5435C11.0369 3.13256 10.5513 3.33441 10.194 3.69344C9.83667 4.05247 9.63715 4.53908 9.63959 5.04561V5.04561C9.62458 6.09142 8.77246 6.9313 7.72655 6.9312C7.40419 6.92785 7.08844 6.83944 6.81121 6.6749V6.6749C5.89604 6.15051 4.72909 6.46579 4.20252 7.37971L3.53433 8.47811C3.00839 9.39089 3.31938 10.5571 4.22998 11.0868V11.0868C4.82188 11.4285 5.18651 12.0601 5.18651 12.7436C5.18651 13.427 4.82188 14.0586 4.22998 14.4003V14.4003C3.32054 14.9264 3.00921 16.0898 3.53433 16.9998V16.9998L4.1659 18.0891C4.41263 18.5343 4.82658 18.8628 5.31617 19.0019C5.80576 19.1411 6.33062 19.0794 6.7746 18.8305V18.8305C7.21106 18.5758 7.73117 18.5061 8.21932 18.6367C8.70747 18.7673 9.12321 19.0875 9.37414 19.5262C9.53868 19.8034 9.62709 20.1191 9.63044 20.4415V20.4415C9.63044 21.498 10.4869 22.3545 11.5435 22.3545H12.7975C13.8505 22.3545 14.7055 21.5036 14.7105 20.4506V20.4506C14.7081 19.9425 14.9088 19.4545 15.2681 19.0952C15.6274 18.7359 16.1155 18.5352 16.6236 18.5376C16.9452 18.5462 17.2596 18.6343 17.5389 18.7939V18.7939C18.4517 19.3198 19.6179 19.0088 20.1476 18.0982V18.0982L20.8066 16.9998C21.0617 16.562 21.1317 16.0405 21.0012 15.5509C20.8706 15.0612 20.5502 14.6438 20.111 14.3911V14.3911C19.6717 14.1385 19.3514 13.7211 19.2208 13.2314C19.0902 12.7418 19.1602 12.2203 19.4153 11.7825C19.5812 11.4928 19.8214 11.2527 20.111 11.0868V11.0868C21.0161 10.5574 21.3264 9.39799 20.8066 8.48726V8.48726V8.47811Z" stroke="#757575" stroke-width="1.5" stroke-linecap="round" stroke-linejoin="round"/>
<circle cx="12.1751" cy="12.7436" r="2.63616" stroke="#757575" stroke-width="1.5" stroke-linecap="round" stroke-linejoin="round"/>
</svg>
