<svg width="30" height="27" viewBox="0 0 30 27" fill="none" xmlns="http://www.w3.org/2000/svg">
<g id="2 PT">
<path id="Vector" d="M28.7838 6.91897H1.21622C1.14819 6.91897 1.08125 6.90185 1.02157 6.86919C0.961896 6.83653 0.911398 6.78938 0.874731 6.73207C0.838064 6.67477 0.816406 6.60916 0.811754 6.54129C0.807101 6.47342 0.819603 6.40547 0.848107 6.3437L3.28054 1.07343C3.31299 1.00311 3.3649 0.943556 3.43014 0.901814C3.49537 0.860072 3.5712 0.83789 3.64865 0.837891H26.3514C26.4288 0.83789 26.5046 0.860072 26.5699 0.901814C26.6351 0.943556 26.687 1.00311 26.7195 1.07343L29.1519 6.3437C29.1804 6.40547 29.1929 6.47342 29.1882 6.54129C29.1836 6.60916 29.1619 6.67477 29.1253 6.73207C29.0886 6.78938 29.0381 6.83653 28.9784 6.86919C28.9188 6.90185 28.8518 6.91897 28.7838 6.91897ZM1.84986 6.10816H28.1501L26.0919 1.6487H3.90811L1.84986 6.10816Z" fill="#757575"/>
<path id="Vector_2" d="M3.18527 11.7838C2.55575 11.7831 1.95224 11.5327 1.5071 11.0875C1.06197 10.6424 0.811561 10.0389 0.81081 9.40937V6.51356C0.81081 6.40604 0.853522 6.30292 0.929551 6.22689C1.00558 6.15087 1.1087 6.10815 1.21622 6.10815H5.15432C5.26184 6.10815 5.36496 6.15087 5.44099 6.22689C5.51702 6.30292 5.55973 6.40604 5.55973 6.51356V9.40937C5.55898 10.0389 5.30857 10.6424 4.86344 11.0875C4.4183 11.5327 3.81479 11.7831 3.18527 11.7838ZM1.62162 6.91897V9.40937C1.62162 9.82408 1.78636 10.2218 2.0796 10.515C2.37284 10.8083 2.77056 10.973 3.18527 10.973C3.59998 10.973 3.9977 10.8083 4.29094 10.515C4.58418 10.2218 4.74892 9.82408 4.74892 9.40937V6.91897H1.62162Z" fill="#757575"/>
<path id="Vector_3" d="M7.12338 11.7838C6.49386 11.7831 5.89035 11.5327 5.44521 11.0875C5.00008 10.6424 4.74967 10.0389 4.74892 9.40937V6.51356C4.74892 6.40604 4.79163 6.30292 4.86766 6.22689C4.94369 6.15087 5.0468 6.10815 5.15432 6.10815H9.09243C9.19995 6.10815 9.30307 6.15087 9.3791 6.22689C9.45513 6.30292 9.49784 6.40604 9.49784 6.51356V9.40937C9.49709 10.0389 9.24668 10.6424 8.80155 11.0875C8.35641 11.5327 7.75289 11.7831 7.12338 11.7838ZM5.55973 6.91897V9.40937C5.55973 9.82408 5.72447 10.2218 6.01771 10.515C6.31095 10.8083 6.70867 10.973 7.12338 10.973C7.53808 10.973 7.9358 10.8083 8.22905 10.515C8.52229 10.2218 8.68703 9.82408 8.68703 9.40937V6.91897H5.55973Z" fill="#757575"/>
<path id="Vector_4" d="M11.0619 11.7838C10.4324 11.7831 9.82886 11.5327 9.38372 11.0875C8.93859 10.6424 8.68818 10.0389 8.68743 9.40937V6.51356C8.68743 6.40604 8.73014 6.30292 8.80617 6.22689C8.8822 6.15087 8.98532 6.10815 9.09284 6.10815H13.0309C13.1385 6.10815 13.2416 6.15087 13.3176 6.22689C13.3936 6.30292 13.4364 6.40604 13.4364 6.51356V9.40937C13.4356 10.0389 13.1852 10.6424 12.7401 11.0875C12.2949 11.5327 11.6914 11.7831 11.0619 11.7838ZM9.49824 6.91897V9.40937C9.49824 9.82408 9.66298 10.2218 9.95622 10.515C10.2495 10.8083 10.6472 10.973 11.0619 10.973C11.4766 10.973 11.8743 10.8083 12.1676 10.515C12.4608 10.2218 12.6255 9.82408 12.6255 9.40937V6.91897H9.49824Z" fill="#757575"/>
<path id="Vector_5" d="M15 11.7838C14.3705 11.7831 13.767 11.5327 13.3218 11.0875C12.8767 10.6424 12.6263 10.0389 12.6255 9.40937V6.51356C12.6255 6.40604 12.6683 6.30292 12.7443 6.22689C12.8203 6.15087 12.9234 6.10815 13.0309 6.10815H16.9691C17.0766 6.10815 17.1797 6.15087 17.2557 6.22689C17.3317 6.30292 17.3745 6.40604 17.3745 6.51356V9.40937C17.3737 10.0389 17.1233 10.6424 16.6782 11.0875C16.233 11.5327 15.6295 11.7831 15 11.7838ZM13.4364 6.91897V9.40937C13.4364 9.82408 13.6011 10.2218 13.8943 10.515C14.1876 10.8083 14.5853 10.973 15 10.973C15.4147 10.973 15.8124 10.8083 16.1057 10.515C16.3989 10.2218 16.5636 9.82408 16.5636 9.40937V6.91897H13.4364Z" fill="#757575"/>
<path id="Vector_6" d="M18.9381 11.7838C18.3086 11.7831 17.7051 11.5327 17.2599 11.0875C16.8148 10.6424 16.5644 10.0389 16.5636 9.40937V6.51356C16.5636 6.40604 16.6064 6.30292 16.6824 6.22689C16.7584 6.15087 16.8615 6.10815 16.969 6.10815H20.9072C21.0147 6.10815 21.1178 6.15087 21.1938 6.22689C21.2699 6.30292 21.3126 6.40604 21.3126 6.51356V9.40937C21.3118 10.0389 21.0614 10.6424 20.6163 11.0875C20.1711 11.5327 19.5676 11.7831 18.9381 11.7838ZM17.3745 6.91897V9.40937C17.3745 9.82408 17.5392 10.2218 17.8324 10.515C18.1257 10.8083 18.5234 10.973 18.9381 10.973C19.3528 10.973 19.7505 10.8083 20.0438 10.515C20.337 10.2218 20.5018 9.82408 20.5018 9.40937V6.91897H17.3745Z" fill="#757575"/>
<path id="Vector_7" d="M22.8766 11.7838C22.2471 11.7831 21.6436 11.5327 21.1985 11.0875C20.7533 10.6424 20.5029 10.0389 20.5022 9.40937V6.51356C20.5022 6.40604 20.5449 6.30292 20.6209 6.22689C20.6969 6.15087 20.8 6.10815 20.9076 6.10815H24.8457C24.9532 6.10815 25.0563 6.15087 25.1323 6.22689C25.2084 6.30292 25.2511 6.40604 25.2511 6.51356V9.40937C25.2503 10.0389 24.9999 10.6424 24.5548 11.0875C24.1097 11.5327 23.5061 11.7831 22.8766 11.7838ZM21.3126 6.91897V9.40937C21.3126 9.82408 21.4773 10.2218 21.7705 10.515C22.0638 10.8083 22.4615 10.973 22.8762 10.973C23.2909 10.973 23.6886 10.8083 23.9819 10.515C24.2751 10.2218 24.4399 9.82408 24.4399 9.40937V6.91897H21.3126Z" fill="#757575"/>
<path id="Vector_8" d="M26.8147 11.7838C26.1852 11.7831 25.5817 11.5327 25.1366 11.0875C24.6914 10.6424 24.441 10.0389 24.4403 9.40937V6.51356C24.4403 6.40604 24.483 6.30292 24.559 6.22689C24.635 6.15087 24.7382 6.10815 24.8457 6.10815H28.7838C28.8913 6.10815 28.9944 6.15087 29.0704 6.22689C29.1465 6.30292 29.1892 6.40604 29.1892 6.51356V9.40937C29.1884 10.0389 28.938 10.6424 28.4929 11.0875C28.0478 11.5327 27.4442 11.7831 26.8147 11.7838ZM25.2511 6.91897V9.40937C25.2511 9.82408 25.4158 10.2218 25.7091 10.515C26.0023 10.8083 26.4 10.973 26.8147 10.973C27.2294 10.973 27.6272 10.8083 27.9204 10.515C28.2136 10.2218 28.3784 9.82408 28.3784 9.40937V6.91897H25.2511Z" fill="#757575"/>
<path id="Vector_9" d="M27.5676 26.3786H2.39594C2.28842 26.3786 2.18531 26.3358 2.10928 26.2598C2.03325 26.1838 1.99054 26.0807 1.99054 25.9731V10.9731H2.80135V25.5677H27.1622V10.9731H27.973V25.9731C27.973 26.0807 27.9303 26.1838 27.8542 26.2598C27.7782 26.3358 27.6751 26.3786 27.5676 26.3786Z" fill="#757575"/>
<path id="Vector_10" d="M24.3243 26.3785H17.4324C17.3249 26.3785 17.2218 26.3358 17.1458 26.2598C17.0697 26.1838 17.027 26.0807 17.027 25.9731V14.6218C17.027 14.5143 17.0697 14.4111 17.1458 14.3351C17.2218 14.2591 17.3249 14.2164 17.4324 14.2164H24.3243C24.4318 14.2164 24.535 14.2591 24.611 14.3351C24.687 14.4111 24.7297 14.5143 24.7297 14.6218V25.9731C24.7297 26.0807 24.687 26.1838 24.611 26.2598C24.535 26.3358 24.4318 26.3785 24.3243 26.3785ZM17.8378 25.5677H23.9189V15.0272H17.8378V25.5677ZM15 22.9326H4.86486C4.75734 22.9326 4.65423 22.8899 4.5782 22.8139C4.50217 22.7378 4.45946 22.6347 4.45946 22.5272V14.4191C4.45946 14.3116 4.50217 14.2084 4.5782 14.1324C4.65423 14.0564 4.75734 14.0137 4.86486 14.0137H15C15.1075 14.0137 15.2106 14.0564 15.2867 14.1324C15.3627 14.2084 15.4054 14.3116 15.4054 14.4191V22.5272C15.4054 22.6347 15.3627 22.7378 15.2867 22.8139C15.2106 22.8899 15.1075 22.9326 15 22.9326ZM5.27027 22.1218H14.5946V14.8245H5.27027V22.1218Z" fill="#757575"/>
</g>
</svg>
