<svg width="30" height="30" viewBox="0 0 30 30" fill="none" xmlns="http://www.w3.org/2000/svg">
<g id="Frame" clip-path="url(#clip0_14533_3179)">
<g id="Group">
<path id="Vector" d="M1.50001 8V22C1.50001 22.3978 1.65804 22.7794 1.93935 23.0607C2.22065 23.342 2.60218 23.5 3.00001 23.5H17.9705C17.3759 24.201 17.0341 25.0814 17 26V29C17 29.2652 17.1054 29.5196 17.2929 29.7071C17.4804 29.8946 17.7348 30 18 30H29C29.2652 30 29.5196 29.8946 29.7071 29.7071C29.8947 29.5196 30 29.2652 30 29V26C30 24.4365 28.8 22.8 27.0685 21.9095C27.2512 21.6103 27.3752 21.2791 27.434 20.9335L27.534 20.3305C27.8148 20.239 28.0594 20.061 28.2329 19.822C28.4064 19.583 28.4999 19.2953 28.5 19V16.9595C28.4987 16.1892 28.3171 15.43 27.9698 14.7424C27.6225 14.0549 27.1192 13.4582 26.5 13V8C26.8978 8 27.2794 7.84196 27.5607 7.56066C27.842 7.27936 28 6.89782 28 6.5V5.414C28.0006 5.21694 27.962 5.02174 27.8866 4.83969C27.8111 4.65765 27.7003 4.49239 27.5605 4.3535L23.793 0.586C23.4173 0.212011 22.9091 0.0014221 22.379 0L5.62101 0C5.09088 0.0014221 4.58273 0.212011 4.20701 0.586L0.439506 4.3535C0.299719 4.49239 0.188891 4.65765 0.113447 4.83969C0.0380036 5.02174 -0.0005552 5.21694 6.03974e-06 5.414V6.5C6.03974e-06 6.89782 0.158041 7.27936 0.439346 7.56066C0.72065 7.84196 1.10218 8 1.50001 8ZM1.00001 6.5V5.5H5.50001V7H1.50001C1.3674 7 1.24022 6.94732 1.14645 6.85355C1.05268 6.75979 1.00001 6.63261 1.00001 6.5ZM17.5 7V5.5H21.5V7H17.5ZM16.5 5.5V7H11.5V5.5H16.5ZM17.36 4.5L16.1935 1H18.7325L21.066 4.5H17.36ZM16.3065 4.5H11.6935L12.86 1H15.14L16.3065 4.5ZM10.64 4.5H6.93401L9.26751 1H11.8065L10.64 4.5ZM10.5 5.5V7H6.50001V5.5H10.5ZM10.5 22.5H4.50001V11.5C4.50001 11.3674 4.55269 11.2402 4.64645 11.1464C4.74022 11.0527 4.8674 11 5.00001 11H10C10.1326 11 10.2598 11.0527 10.3536 11.1464C10.4473 11.2402 10.5 11.3674 10.5 11.5V22.5ZM20.6305 22.6805C20.6665 22.7075 20.7005 22.736 20.738 22.761C20.821 22.817 20.9085 22.8795 21.002 22.945C21.4599 23.2923 21.9603 23.5796 22.491 23.8L21.656 24.6345C21.6144 24.6754 21.5584 24.6983 21.5 24.6983C21.4416 24.6983 21.3856 24.6754 21.344 24.6345L19.835 23.128C20.0866 22.9558 20.3528 22.8061 20.6305 22.6805ZM26.2615 22.761C26.299 22.736 26.3335 22.707 26.3695 22.6805C26.6472 22.8071 26.9134 22.9577 27.165 23.1305L25.656 24.639C25.6144 24.6799 25.5584 24.7028 25.5 24.7028C25.4416 24.7028 25.3856 24.6799 25.344 24.639L24.509 23.8C25.0404 23.5797 25.5415 23.2924 26 22.945C26.0915 22.8795 26.179 22.817 26.2615 22.761ZM22.7675 25.5L22.5435 25.1635L23.5 24.207L24.4565 25.1635L24.2325 25.5H22.7675ZM22.934 26.5H24.066L24.4235 29H22.5765L22.934 26.5ZM18 26C18.0566 25.1484 18.4372 24.3508 19.0635 23.771L20.6365 25.344C20.7499 25.4573 20.8846 25.547 21.0328 25.6081C21.1809 25.6692 21.3397 25.7004 21.5 25.7C21.5629 25.6989 21.6255 25.6931 21.6875 25.6825L21.978 26.1175L21.566 29H18V26ZM29 26V29H25.434L25.022 26.118L25.3125 25.683C25.3745 25.6934 25.4372 25.6991 25.5 25.7C25.6603 25.7004 25.8191 25.669 25.9673 25.6079C26.1155 25.5467 26.2501 25.4568 26.3635 25.3435L27.9365 23.7705C28.563 24.3504 28.9435 25.1482 29 26ZM27.1 19.4C26.9817 19.4 26.8673 19.442 26.777 19.5184C26.6868 19.5949 26.6265 19.7008 26.607 19.8175L26.448 20.7675C26.4087 21.0016 26.3224 21.2254 26.1942 21.4253C26.0661 21.6251 25.8988 21.797 25.7025 21.9305C25.6145 21.99 25.5205 22.0565 25.4215 22.1265C24.871 22.5165 24.1855 23 23.5 23C22.8145 23 22.129 22.5165 21.5785 22.128C21.4785 22.058 21.3855 21.9915 21.297 21.932C21.1007 21.7984 20.9336 21.6264 20.8055 21.4264C20.6775 21.2265 20.5913 21.0027 20.552 20.7685L20.393 19.8185C20.3737 19.7017 20.3136 19.5955 20.2233 19.5188C20.133 19.4422 20.0184 19.4001 19.9 19.4C19.7939 19.4 19.6922 19.3579 19.6172 19.2828C19.5422 19.2078 19.5 19.1061 19.5 19C19.5 18.8939 19.5422 18.7922 19.6172 18.7172C19.6922 18.6421 19.7939 18.6 19.9 18.6C20.0326 18.6 20.1598 18.5473 20.2536 18.4536C20.3473 18.3598 20.4 18.2326 20.4 18.1C20.4 17.76 20.5865 17.456 20.8165 17.4235C21.7629 17.3038 22.6742 16.9894 23.493 16.5C24.3177 16.988 25.2335 17.3024 26.184 17.424C26.4135 17.4565 26.6 17.7605 26.6 18.1005C26.6 18.2331 26.6527 18.3603 26.7465 18.4541C26.8402 18.5478 26.9674 18.6005 27.1 18.6005C27.2061 18.6005 27.3078 18.6426 27.3829 18.7177C27.4579 18.7927 27.5 18.8944 27.5 19.0005C27.5 19.1066 27.4579 19.2083 27.3829 19.2833C27.3078 19.3584 27.2061 19.4 27.1 19.4ZM23.5 12C22.1798 11.9961 20.9119 12.5161 19.9745 13.4459C19.0372 14.3757 18.5069 15.6393 18.5 16.9595V17.5H14C13.8674 17.5 13.7402 17.4473 13.6465 17.3536C13.5527 17.2598 13.5 17.1326 13.5 17V11.5C13.5 11.3674 13.5527 11.2402 13.6465 11.1464C13.7402 11.0527 13.8674 11 14 11H23C23.1326 11 23.2598 11.0527 23.3536 11.1464C23.4473 11.2402 23.5 11.3674 23.5 11.5V12ZM27.5 16.9595V17.5C27.4222 17.231 27.2711 16.9889 27.0636 16.8008C26.8561 16.6127 26.6004 16.486 26.325 16.435C25.5135 16.3333 24.7311 16.0681 24.025 15.6555C23.8683 15.5551 23.6861 15.5017 23.5 15.5017C23.3139 15.5017 23.1317 15.5551 22.975 15.6555C22.2689 16.0683 21.4865 16.3336 20.675 16.4355C20.3997 16.4865 20.144 16.6131 19.9365 16.8011C19.729 16.989 19.5779 17.231 19.5 17.5V16.9595C19.5 15.8986 19.9214 14.8812 20.6716 14.1311C21.4217 13.3809 22.4391 12.9595 23.5 12.9595C24.5609 12.9595 25.5783 13.3809 26.3284 14.1311C27.0786 14.8812 27.5 15.8986 27.5 16.9595ZM25.5 12.417C25.1788 12.2764 24.8436 12.1702 24.5 12.1V11.5C24.5 11.1022 24.342 10.7206 24.0607 10.4393C23.7794 10.158 23.3978 10 23 10H14C13.6022 10 13.2207 10.158 12.9393 10.4393C12.658 10.7206 12.5 11.1022 12.5 11.5V17C12.5 17.3978 12.658 17.7794 12.9393 18.0607C13.2207 18.342 13.6022 18.5 14 18.5H18.5V19C18.5001 19.2952 18.5934 19.5828 18.7667 19.8218C18.94 20.0607 19.1844 20.2388 19.465 20.3305L19.565 20.9305C19.6237 21.2763 19.7477 21.6077 19.9305 21.907C19.6025 22.0765 19.2902 22.2749 18.9975 22.5H11.5V11.5C11.5 11.1022 11.342 10.7206 11.0607 10.4393C10.7794 10.158 10.3978 10 10 10H5.00001C4.60218 10 4.22065 10.158 3.93935 10.4393C3.65804 10.7206 3.50001 11.1022 3.50001 11.5V22.5H3.00001C2.8674 22.5 2.74022 22.4473 2.64645 22.3536C2.55268 22.2598 2.50001 22.1326 2.50001 22V8H25.5V12.417ZM26.5 7H22.5V5.5H27V6.5C27 6.63261 26.9473 6.75979 26.8536 6.85355C26.7598 6.94732 26.6326 7 26.5 7ZM23.086 1.293L26.293 4.5H22.2675L19.934 1H22.379C22.644 1.00087 22.8981 1.10614 23.086 1.293ZM4.91401 1.293C5.10196 1.10614 5.35598 1.00087 5.62101 1H8.06601L5.73251 4.5H1.70701L4.91401 1.293Z" fill="#757575"/>
</g>
</g>
<defs>
<clipPath id="clip0_14533_3179">
<rect width="30" height="30" fill="white"/>
</clipPath>
</defs>
</svg>
