<svg width="40" height="40" viewBox="0 0 40 40" fill="none" xmlns="http://www.w3.org/2000/svg">
<g id="Frame">
<g id="Group">
<path id="Vector" d="M37.9 21.5356L34.9107 16.5531C34.8106 16.4138 34.6769 16.3044 34.5082 16.2644L27.3425 14.7063C27.8565 13.6265 28.1237 12.4459 28.125 11.25C28.125 6.77 24.48 3.125 20 3.125C15.52 3.125 11.875 6.77 11.875 11.25C11.875 12.4875 12.1613 13.6562 12.6575 14.7063L5.4919 16.2644C5.32315 16.3044 5.18878 16.4144 5.0894 16.5531L2.10003 21.5356C1.4969 22.4869 1.96565 23.8612 3.02503 24.2456L5.00003 25.0187V31.6469C5.00003 32.4237 5.46753 33.1094 6.1919 33.3931L19.7725 38.7069C19.9188 38.7642 20.0813 38.7642 20.2275 38.7069L33.8088 33.3931C34.1608 33.2569 34.4631 33.017 34.6758 32.7051C34.8885 32.3933 35.0016 32.0243 35 31.6469V25.0187L36.975 24.2456C38.0344 23.8612 38.5032 22.4869 37.9 21.5356ZM20 4.375C23.7907 4.375 26.875 7.45937 26.875 11.25C26.875 15.0406 23.7907 18.125 20 18.125C16.2094 18.125 13.125 15.0406 13.125 11.25C13.125 7.45937 16.2094 4.375 20 4.375ZM13.3063 15.845C14.7719 17.9744 17.225 19.375 20 19.375C22.775 19.375 25.2275 17.975 26.6938 15.845L32.2219 17.0463L20 21.8287L7.77815 17.0463L13.3057 15.845H13.3063ZM3.4794 23.0825C3.1269 22.955 2.96878 22.495 3.17128 22.1781L5.88878 17.6494L19.0825 22.8125L16.2575 27.5225C16.1816 27.6494 16.0631 27.7453 15.9231 27.793C15.7832 27.8408 15.6308 27.8372 15.4932 27.7831L3.4794 23.0825ZM19.375 37.2088L6.64753 32.2281C6.53019 32.1827 6.42937 32.1028 6.3584 31.9989C6.28743 31.895 6.24965 31.7721 6.25003 31.6462V25.5075L15.0388 28.9462C15.8763 29.2787 16.8563 28.9587 17.3294 28.165L19.375 24.7563V37.2088ZM33.75 31.6462C33.75 31.905 33.5938 32.1337 33.3532 32.2281L20.625 37.2094V24.7563L22.6707 28.1656C22.8983 28.5458 23.2534 28.833 23.6728 28.976C24.0922 29.1191 24.5488 29.1088 24.9613 28.9469L33.75 25.5081V31.6462ZM36.52 23.0812L24.5063 27.7831C24.3687 27.8371 24.2165 27.8405 24.0766 27.7928C23.9368 27.7451 23.8184 27.6493 23.7425 27.5225L20.9163 22.8125L34.1107 17.65L36.8282 22.1781C37.0307 22.4956 36.8719 22.9544 36.52 23.0812ZM18.235 13.0525C17.545 12.5388 16.8688 13.6331 17.5457 14.1025C18.145 14.6225 18.7469 14.8438 19.5075 14.9062V15.5125C19.475 16.36 20.8075 16.35 20.78 15.5125V14.8525C21.825 14.6488 22.7675 13.8569 22.7419 12.7238C22.7419 12.3631 22.6888 12.0575 22.5825 11.8069C22.2844 11.0794 21.5238 10.8037 20.78 10.6237V8.67375C21.0869 8.765 21.4663 8.92438 21.6807 9.11875C21.9007 9.28375 22.2063 9.22625 22.3913 9.02313C22.6844 8.715 22.6082 8.30063 22.2644 8.03688C21.9075 7.72438 21.3082 7.465 20.78 7.37937V6.9875C20.7863 6.63 20.5188 6.33313 20.155 6.34063C20.0695 6.33866 19.9845 6.35405 19.9051 6.38585C19.8257 6.41766 19.7535 6.46523 19.693 6.52568C19.6325 6.58614 19.5849 6.65823 19.553 6.7376C19.5211 6.81697 19.5056 6.90198 19.5075 6.9875V7.3525C19.22 7.39187 18.9444 7.45312 18.6907 7.56C17.8825 7.90188 17.3669 8.575 17.3763 9.47875C17.3238 10.7131 18.3638 11.4537 19.5075 11.6038V13.6806C19.0013 13.5988 18.6575 13.385 18.235 13.0525ZM20.78 11.9231C21.1925 12.1038 21.4688 12.3481 21.4694 12.7981C21.4694 12.975 21.4019 13.1319 21.2675 13.27C21.1425 13.3981 20.9775 13.4988 20.78 13.5781V11.9231ZM19.3482 10.2794C18.92 10.1256 18.6282 9.8875 18.6275 9.42625C18.62 8.94687 19.05 8.65125 19.5075 8.57875V10.3275C19.455 10.3113 19.3963 10.2956 19.3482 10.2794Z" fill="#FEFEFE"/>
</g>
</g>
</svg>
