<svg width="30" height="30" viewBox="0 0 30 30" fill="none" xmlns="http://www.w3.org/2000/svg">
<g id="Frame">
<g id="Group">
<path id="Vector" fill-rule="evenodd" clip-rule="evenodd" d="M10.4971 26.5799H1.4918C0.669141 26.5799 0 25.9108 0 25.0887V6.05161C0 5.22896 0.669141 4.55981 1.4918 4.55981H9.35742C9.55137 4.55981 9.70898 4.71743 9.70898 4.91138C9.70898 5.10591 9.55137 5.26294 9.35742 5.26294H1.4918C1.05703 5.26294 0.703125 5.61685 0.703125 6.05161V25.0887C0.703125 25.5229 1.05703 25.8768 1.4918 25.8768H10.4971C10.9318 25.8768 11.2857 25.5229 11.2857 25.0881C11.2857 24.8942 11.4428 24.7366 11.6373 24.7366C11.8312 24.7366 11.9889 24.8942 11.9889 25.0881C11.9889 25.9108 11.3197 26.5799 10.4971 26.5799Z" fill="#757575"/>
<path id="Vector_2" fill-rule="evenodd" clip-rule="evenodd" d="M19.5029 25.4397H10.4971C9.675 25.4397 9.00586 24.7711 9.00586 23.9485V4.91138C9.00586 4.08931 9.675 3.42017 10.4971 3.42017H19.5029C20.325 3.42017 20.9941 4.08931 20.9941 4.91138V23.9485C20.9941 24.7711 20.325 25.4397 19.5029 25.4397ZM10.4971 4.12329C10.0623 4.12329 9.70898 4.4772 9.70898 4.91138V23.9485C9.70898 24.3833 10.0623 24.7372 10.4971 24.7372H19.5029C19.9371 24.7372 20.291 24.3833 20.291 23.9485V4.91138C20.291 4.4772 19.9371 4.12329 19.5029 4.12329H10.4971Z" fill="#757575"/>
<path id="Vector_3" fill-rule="evenodd" clip-rule="evenodd" d="M28.5082 26.5799H19.5029C18.6803 26.5799 18.0111 25.9108 18.0111 25.0881C18.0111 24.8942 18.1688 24.7372 18.3627 24.7372C18.5572 24.7372 18.7143 24.8942 18.7143 25.0881C18.7143 25.5229 19.0682 25.8768 19.5029 25.8768H28.5082C28.943 25.8768 29.2969 25.5229 29.2969 25.0881V6.05161C29.2969 5.61685 28.943 5.26294 28.5082 5.26294H20.6426C20.4486 5.26294 20.291 5.10591 20.291 4.91138C20.291 4.71743 20.4486 4.55981 20.6426 4.55981H28.5082C29.3309 4.55981 30 5.22896 30 6.05161V25.0887C30 25.9108 29.3309 26.5799 28.5082 26.5799ZM4.85449 13.2452C3.85898 13.2452 3.04922 12.4354 3.04922 11.4399C3.04922 11.2459 3.20684 11.0883 3.40078 11.0883C3.59531 11.0883 3.75234 11.2459 3.75234 11.4399C3.75234 12.0475 4.24688 12.542 4.85449 12.542C5.46211 12.542 5.95664 12.0475 5.95664 11.4399C5.95664 10.8323 5.46211 10.3383 4.85449 10.3383C3.85898 10.3383 3.04922 9.52856 3.04922 8.53306C3.04922 7.53814 3.85898 6.72837 4.85449 6.72837C5.85 6.72837 6.65977 7.53814 6.65977 8.53306C6.65977 8.72759 6.50215 8.88462 6.3082 8.88462C6.11367 8.88462 5.95664 8.72759 5.95664 8.53306C5.95664 7.92544 5.46211 7.43149 4.85449 7.43149C4.24688 7.43149 3.75234 7.92544 3.75234 8.53306C3.75234 9.14067 4.24688 9.63521 4.85449 9.63521C5.85 9.63521 6.65977 10.445 6.65977 11.4399C6.65977 12.4354 5.85 13.2452 4.85449 13.2452ZM7.33418 14.9063H2.37539C2.18086 14.9063 2.02383 14.7487 2.02383 14.5547C2.02383 14.3602 2.18086 14.2032 2.37539 14.2032H7.33418C7.52813 14.2032 7.68574 14.3602 7.68574 14.5547C7.68574 14.7487 7.52813 14.9063 7.33418 14.9063ZM7.33418 18.1553H2.37539C2.18086 18.1553 2.02383 17.9977 2.02383 17.8038C2.02383 17.6092 2.18086 17.4522 2.37539 17.4522H7.33418C7.52813 17.4522 7.68574 17.6092 7.68574 17.8038C7.68574 17.9977 7.52813 18.1553 7.33418 18.1553ZM7.33418 21.4038H2.37539C2.18086 21.4038 2.02383 21.2467 2.02383 21.0522C2.02383 20.8583 2.18086 20.7006 2.37539 20.7006H7.33418C7.52813 20.7006 7.68574 20.8583 7.68574 21.0522C7.68574 21.2467 7.52813 21.4038 7.33418 21.4038ZM7.56211 24.412H2.14688C1.95293 24.412 1.79531 24.2543 1.79531 24.0604V22.7209C1.79531 22.5264 1.95293 22.3694 2.14688 22.3694H7.56211C7.75605 22.3694 7.91367 22.5264 7.91367 22.7209V24.0604C7.91367 24.2543 7.75605 24.412 7.56211 24.412ZM2.49902 23.7088H7.21055V23.0725H2.49902V23.7088Z" fill="#757575"/>
<path id="Vector_4" fill-rule="evenodd" clip-rule="evenodd" d="M25.1455 13.2451C24.15 13.2451 23.3402 12.4353 23.3402 11.4398C23.3402 11.2458 23.4979 11.0882 23.6918 11.0882C23.8857 11.0882 24.0434 11.2458 24.0434 11.4398C24.0434 12.0474 24.5379 12.5419 25.1455 12.5419C25.7531 12.5419 26.2471 12.0474 26.2471 11.4398C26.2471 10.8322 25.7531 10.3382 25.1455 10.3382C24.15 10.3382 23.3402 9.52847 23.3402 8.53296C23.3402 7.53804 24.15 6.72827 25.1455 6.72827C26.1404 6.72827 26.9502 7.53804 26.9502 8.53296C26.9502 8.72749 26.7932 8.88452 26.5986 8.88452C26.4047 8.88452 26.2471 8.72749 26.2471 8.53296C26.2471 7.92534 25.7531 7.4314 25.1455 7.4314C24.5379 7.4314 24.0434 7.92534 24.0434 8.53296C24.0434 9.14058 24.5379 9.63511 25.1455 9.63511C26.1404 9.63511 26.9502 10.4449 26.9502 11.4398C26.9502 12.4353 26.1404 13.2451 25.1455 13.2451ZM27.6246 14.9097H22.6658C22.4719 14.9097 22.3143 14.7521 22.3143 14.5582C22.3143 14.3642 22.4719 14.2066 22.6658 14.2066H27.6246C27.8191 14.2066 27.9762 14.3642 27.9762 14.5582C27.9762 14.7521 27.8191 14.9097 27.6246 14.9097ZM27.6246 18.1587H22.6658C22.4719 18.1587 22.3143 18.0011 22.3143 17.8072C22.3143 17.6126 22.4719 17.4556 22.6658 17.4556H27.6246C27.8191 17.4556 27.9762 17.6126 27.9762 17.8072C27.9762 18.0011 27.8191 18.1587 27.6246 18.1587ZM27.6246 21.4072H22.6658C22.4719 21.4072 22.3143 21.2501 22.3143 21.0556C22.3143 20.8617 22.4719 20.7041 22.6658 20.7041H27.6246C27.8191 20.7041 27.9762 20.8617 27.9762 21.0556C27.9762 21.2501 27.8191 21.4072 27.6246 21.4072ZM27.8525 24.4119H22.4379C22.2439 24.4119 22.0863 24.2542 22.0863 24.0603V22.7208C22.0863 22.5263 22.2439 22.3693 22.4379 22.3693H27.8525C28.0471 22.3693 28.2041 22.5263 28.2041 22.7208V24.0603C28.2041 24.2542 28.0471 24.4119 27.8525 24.4119ZM22.7895 23.7087H27.501V23.0724H22.7895V23.7087ZM15 11.789C14.0045 11.789 13.1947 10.9798 13.1947 9.98433C13.1947 9.79038 13.3523 9.63276 13.5463 9.63276C13.7408 9.63276 13.8979 9.79038 13.8979 9.98433C13.8979 10.5919 14.3924 11.0859 15 11.0859C15.6076 11.0859 16.1021 10.5919 16.1021 9.98433C16.1021 9.37671 15.6076 8.88218 15 8.88218C14.0045 8.88218 13.1947 8.07241 13.1947 7.07749C13.1947 6.08198 14.0045 5.27222 15 5.27222C15.9955 5.27222 16.8053 6.08198 16.8053 7.07749C16.8053 7.27144 16.6477 7.42905 16.4537 7.42905C16.2592 7.42905 16.1021 7.27144 16.1021 7.07749C16.1021 6.46987 15.6076 5.97534 15 5.97534C14.3924 5.97534 13.8979 6.46987 13.8979 7.07749C13.8979 7.68511 14.3924 8.17905 15 8.17905C15.9955 8.17905 16.8053 8.98882 16.8053 9.98433C16.8053 10.9798 15.9955 11.789 15 11.789ZM17.4791 13.7695H12.5209C12.3264 13.7695 12.1693 13.6125 12.1693 13.4179C12.1693 13.3718 12.1784 13.3261 12.1961 13.2835C12.2138 13.2408 12.2397 13.2021 12.2723 13.1695C12.305 13.1369 12.3438 13.1111 12.3864 13.0935C12.4291 13.0759 12.4748 13.0669 12.5209 13.0669H17.4791C17.6736 13.0669 17.8307 13.224 17.8307 13.4179C17.8307 13.6125 17.6736 13.7695 17.4791 13.7695ZM17.4791 17.0185H12.5209C12.3264 17.0185 12.1693 16.8615 12.1693 16.6669C12.1693 16.473 12.3264 16.3154 12.5209 16.3154H17.4791C17.6736 16.3154 17.8307 16.473 17.8307 16.6669C17.8307 16.8615 17.6736 17.0185 17.4791 17.0185ZM17.4791 20.2675H12.5209C12.3264 20.2675 12.1693 20.1099 12.1693 19.916C12.1693 19.722 12.3264 19.5644 12.5209 19.5644H17.4791C17.6736 19.5644 17.8307 19.722 17.8307 19.916C17.8307 20.1099 17.6736 20.2675 17.4791 20.2675ZM17.707 23.5875H12.2924C12.0984 23.5875 11.9408 23.4298 11.9408 23.2359V21.8964C11.9408 21.7025 12.0984 21.5449 12.2924 21.5449H17.707C17.9016 21.5449 18.0586 21.7025 18.0586 21.8964V23.2359C18.0586 23.4304 17.9016 23.5875 17.707 23.5875ZM12.6439 22.8843H17.3555V22.248H12.6439V22.8843Z" fill="#757575"/>
</g>
</g>
</svg>
