<svg width="24" height="25" viewBox="0 0 24 25" fill="none" xmlns="http://www.w3.org/2000/svg">
<g id="Frame">
<g id="Group">
<path id="Vector" fill-rule="evenodd" clip-rule="evenodd" d="M8.37368 16.0621C8.49536 16.1812 8.49795 16.3754 8.38145 16.4971L5.91905 19.0371C5.79541 19.1656 5.58569 19.1604 5.46853 19.0268L4.1972 17.5716C4.08584 17.4421 4.0988 17.2479 4.22825 17.1366C4.35512 17.0253 4.54933 17.0382 4.66069 17.1677L5.71193 18.3691L7.9387 16.0698C8.05779 15.9481 8.252 15.9456 8.37368 16.0621ZM14.1219 9.63293C14.1219 9.80381 13.9846 9.94104 13.8163 9.94104H7.12827C7.08777 9.94116 7.04765 9.93327 7.01022 9.91783C6.97278 9.90239 6.93877 9.8797 6.91013 9.85107C6.8815 9.82243 6.85881 9.78842 6.84337 9.75098C6.82792 9.71355 6.82004 9.67343 6.82016 9.63293C6.82016 9.46464 6.95739 9.32741 7.12827 9.32741H13.8164C13.9846 9.32736 14.1219 9.46459 14.1219 9.63293ZM14.1219 7.71687C14.1219 7.88515 13.9846 8.02239 13.8163 8.02239H7.12827C6.95739 8.02239 6.82016 7.88515 6.82016 7.71687C6.82004 7.67637 6.82792 7.63625 6.84337 7.59881C6.85881 7.56138 6.8815 7.52736 6.91013 7.49873C6.93877 7.47009 6.97278 7.4474 7.01022 7.43196C7.04765 7.41652 7.08777 7.40863 7.12827 7.40875H13.8164C13.9846 7.40871 14.1219 7.54594 14.1219 7.71687ZM14.1219 11.5516C14.1219 11.7199 13.9846 11.8571 13.8163 11.8571H7.12827C6.95739 11.8571 6.82016 11.7199 6.82016 11.5516C6.82004 11.5111 6.82792 11.471 6.84337 11.4335C6.85881 11.3961 6.8815 11.3621 6.91013 11.3334C6.93877 11.3048 6.97278 11.2821 7.01022 11.2667C7.04765 11.2512 7.08777 11.2434 7.12827 11.2435H13.8164C13.9846 11.2434 14.1219 11.3807 14.1219 11.5516ZM21.5272 15.35C21.5272 15.6504 21.2812 15.8964 20.9783 15.8964H19.0544V10.9456C19.0544 9.8892 19.6526 8.99851 20.3595 8.99851C20.9912 8.99851 21.5272 9.80117 21.5272 10.7488V15.35ZM18.4382 10.9457C18.4382 10.2018 18.6664 9.51168 19.1062 8.99856H15.9655V17.3852C15.9655 18.4391 16.5636 19.3297 17.273 19.3297C17.9048 19.3297 18.4382 18.5296 18.4382 17.582V10.9457H18.4382ZM10.3571 19.3297H16.0198C15.5854 18.8496 15.3518 18.0989 15.3518 17.3852V3.97018C15.3518 3.66725 15.1058 3.42125 14.8029 3.42125H8.27528V4.94376C8.27528 5.58591 7.75481 6.10632 7.11272 6.10632H5.5928V13.175C8.29529 12.7452 10.7299 14.8345 10.7299 17.5535C10.7299 18.1853 10.5979 18.786 10.3571 19.3297ZM6.29451 21.3753C8.40219 21.3753 10.1163 19.6612 10.1163 17.5535C10.1163 15.4484 8.40219 13.7343 6.29451 13.7343C4.18942 13.7343 2.47534 15.4484 2.47534 17.5535C2.47534 19.6612 4.18942 21.3753 6.29451 21.3753ZM7.66165 3.85623V4.94371C7.66165 5.24664 7.41569 5.49264 7.11272 5.49264H6.02523L7.66165 3.85623ZM21.6515 9.11506C21.3149 8.64379 20.8566 8.38488 20.3595 8.38488H15.9655V3.97018C15.9655 3.32803 15.445 2.80762 14.8029 2.80762H7.96976C7.88691 2.80762 7.8092 2.83867 7.75227 2.89824L5.0672 5.58072C5.01022 5.64029 4.97657 5.71795 4.97657 5.79821V13.3175C3.17187 13.8819 1.85907 15.5676 1.85907 17.5535C1.85907 20.0004 3.85021 21.9889 6.29451 21.9889C7.86104 21.9889 9.23854 21.1733 10.0282 19.946H17.273C17.7676 19.946 18.2259 19.6845 18.5651 19.2133C18.881 18.7731 19.0544 18.1931 19.0544 17.582V16.5126H20.9783C21.6204 16.5126 22.1409 15.9896 22.1409 15.3501V10.7489C22.1409 10.1352 21.9674 9.55522 21.6515 9.11506Z" fill="#757575"/>
</g>
</g>
</svg>
