<svg width="40" height="40" viewBox="0 0 40 40" fill="none" xmlns="http://www.w3.org/2000/svg">
<g id="Frame" clip-path="url(#clip0_14009_3211)">
<g id="Group">
<path id="Vector" d="M34.5944 18.4763C35.7657 17.6532 36.5414 16.284 36.5414 14.7407C36.5414 12.2159 34.4994 10.174 31.9747 10.174C29.4499 10.174 27.408 12.2159 27.408 14.7407C27.408 16.284 28.1757 17.6532 29.355 18.4763C28.3498 18.8246 27.4317 19.3628 26.6561 20.0592C25.5877 19.1491 24.3292 18.4526 22.9521 18.041C24.6221 17.028 25.7459 15.1839 25.7459 13.0865C25.7459 9.88907 23.1579 7.30103 19.9604 7.30103C16.763 7.30103 14.1749 9.89699 14.1749 13.0865C14.1749 15.1839 15.2909 17.028 16.9687 18.041C15.6074 18.4526 14.3649 19.1412 13.3043 20.0355C12.5287 19.3548 11.6264 18.8246 10.6371 18.4842C11.8085 17.6611 12.5841 16.2919 12.5841 14.7486C12.5841 12.2239 10.5421 10.1819 8.01741 10.1819C5.49268 10.1819 3.45073 12.2239 3.45073 14.7486C3.45073 16.2919 4.21844 17.6611 5.3977 18.4842C2.25564 19.5685 0 22.5523 0 26.0584V26.5808C0 26.5966 0.015829 26.6125 0.0316581 26.6125H9.71112C9.65572 27.0478 9.62406 27.4989 9.62406 27.95V28.4882C9.62406 30.8151 11.5077 32.6987 13.8346 32.6987H26.1021C28.429 32.6987 30.3126 30.8151 30.3126 28.4882V27.95C30.3126 27.4989 30.281 27.0478 30.2256 26.6125H39.9683C39.9842 26.6125 40 26.5966 40 26.5808V26.0584C39.9842 22.5444 37.7364 19.5606 34.5944 18.4763ZM28.6743 14.7328C28.6743 12.9124 30.1543 11.4324 31.9747 11.4324C33.795 11.4324 35.275 12.9124 35.275 14.7328C35.275 16.5294 33.8267 17.9935 32.038 18.0331H31.9114C30.1148 18.0015 28.6743 16.5373 28.6743 14.7328ZM15.4254 13.0865C15.4254 10.5935 17.4515 8.56735 19.9446 8.56735C22.4377 8.56735 24.4638 10.5935 24.4638 13.0865C24.4638 15.4926 22.5722 17.4633 20.2058 17.5978H19.6834C17.317 17.4633 15.4254 15.4926 15.4254 13.0865ZM4.69331 14.7328C4.69331 12.9124 6.17333 11.4324 7.99367 11.4324C9.81401 11.4324 11.294 12.9124 11.294 14.7328C11.294 16.5294 9.84567 17.9935 8.05698 18.0331H7.93035C6.14167 18.0015 4.69331 16.5373 4.69331 14.7328ZM9.93273 25.3382H1.28215C1.63831 21.9666 4.48753 19.3232 7.94618 19.2994H8.04115C9.68738 19.3074 11.1911 19.9168 12.3546 20.9061C11.2149 22.1408 10.368 23.6603 9.93273 25.3382ZM29.0305 28.4882C29.0305 30.1107 27.7087 31.4324 26.0863 31.4324H13.8188C12.1963 31.4324 10.8746 30.1107 10.8746 28.4882V27.95C10.8746 23.0351 14.8002 19.0145 19.6834 18.8721C19.7705 18.88 19.8655 18.88 19.9525 18.88C20.0396 18.88 20.1345 18.88 20.2216 18.8721C25.1049 19.0145 29.0305 23.0351 29.0305 27.95V28.4882ZM29.9723 25.3382C29.537 23.6683 28.706 22.1724 27.5742 20.9377C28.7455 19.9247 30.2651 19.3153 31.9272 19.2994H32.0222C35.4808 19.3232 38.33 21.9666 38.6862 25.3382H29.9723Z" fill="#FEFEFE"/>
</g>
</g>
<defs>
<clipPath id="clip0_14009_3211">
<rect width="40" height="40" fill="white"/>
</clipPath>
</defs>
</svg>
