<svg width="30" height="30" viewBox="0 0 30 30" fill="none" xmlns="http://www.w3.org/2000/svg">
<g id="Frame" clip-path="url(#clip0_14009_3046)">
<g id="Group">
<path id="Vector" d="M25.9458 13.8573C26.8243 13.24 27.406 12.2131 27.406 11.0556C27.406 9.16202 25.8746 7.63056 23.981 7.63056C22.0875 7.63056 20.556 9.16202 20.556 11.0556C20.556 12.2131 21.1318 13.24 22.0162 13.8573C21.2624 14.1185 20.5738 14.5221 19.9921 15.0445C19.1907 14.3619 18.2469 13.8395 17.2141 13.5308C18.4666 12.771 19.3095 11.388 19.3095 9.81497C19.3095 7.41687 17.3684 5.47583 14.9703 5.47583C12.5722 5.47583 10.6312 7.4228 10.6312 9.81497C10.6312 11.388 11.4681 12.771 12.7266 13.5308C11.7056 13.8395 10.7736 14.3559 9.97824 15.0267C9.39652 14.5162 8.71983 14.1185 7.97784 13.8632C8.85635 13.2459 9.43807 12.219 9.43807 11.0615C9.43807 9.16796 7.90661 7.63649 6.01306 7.63649C4.11951 7.63649 2.58805 9.16796 2.58805 11.0615C2.58805 12.219 3.16383 13.2459 4.04828 13.8632C1.69173 14.6765 0 16.9143 0 19.5439V19.9357C0 19.9475 0.0118718 19.9594 0.0237436 19.9594H7.28334C7.24179 20.2859 7.21805 20.6242 7.21805 20.9626V21.3662C7.21805 23.1114 8.63079 24.5241 10.3759 24.5241H19.5766C21.3217 24.5241 22.7345 23.1114 22.7345 21.3662V20.9626C22.7345 20.6242 22.7107 20.2859 22.6692 19.9594H29.9763C29.9881 19.9594 30 19.9475 30 19.9357V19.5439C29.9881 16.9084 28.3023 14.6705 25.9458 13.8573ZM21.5057 11.0496C21.5057 9.68438 22.6157 8.57437 23.981 8.57437C25.3463 8.57437 26.4563 9.68438 26.4563 11.0496C26.4563 12.3971 25.37 13.4952 24.0285 13.5249H23.9335C22.5861 13.5012 21.5057 12.403 21.5057 11.0496ZM11.5691 9.81497C11.5691 7.94516 13.0886 6.42557 14.9584 6.42557C16.8283 6.42557 18.3478 7.94516 18.3478 9.81497C18.3478 11.6195 16.9292 13.0975 15.1543 13.1984H14.7626C12.9877 13.0975 11.5691 11.6195 11.5691 9.81497ZM3.51998 11.0496C3.51998 9.68438 4.63 8.57437 5.99525 8.57437C7.36051 8.57437 8.47052 9.68438 8.47052 11.0496C8.47052 12.3971 7.38425 13.4952 6.04274 13.5249H5.94776C4.60625 13.5012 3.51998 12.403 3.51998 11.0496ZM7.44954 19.0037H0.961615C1.22873 16.475 3.36565 14.4925 5.95964 14.4746H6.03087C7.26553 14.4806 8.39335 14.9376 9.26593 15.6796C8.41116 16.6056 7.77602 17.7453 7.44954 19.0037ZM21.7729 21.3662C21.7729 22.5831 20.7816 23.5744 19.5647 23.5744H10.3641C9.14721 23.5744 8.15592 22.5831 8.15592 21.3662V20.9626C8.15592 17.2764 11.1001 14.261 14.7626 14.1541C14.8279 14.16 14.8991 14.16 14.9644 14.16C15.0297 14.16 15.1009 14.16 15.1662 14.1541C18.8287 14.261 21.7729 17.2764 21.7729 20.9626V21.3662ZM22.4792 19.0037C22.1528 17.7513 21.5295 16.6294 20.6806 15.7034C21.5592 14.9436 22.6989 14.4865 23.9454 14.4746H24.0166C26.6106 14.4925 28.7475 16.475 29.0146 19.0037H22.4792Z" fill="#757575"/>
</g>
</g>
<defs>
<clipPath id="clip0_14009_3046">
<rect width="30" height="30" fill="white"/>
</clipPath>
</defs>
</svg>
